<svg width="17" height="17" viewBox="0 0 17 17" fill="none" xmlns="http://www.w3.org/2000/svg">
<path d="M16.4337 7.51075C16.3703 7.34708 16.2751 7.19756 16.1537 7.07075L9.48707 0.404085C9.36275 0.279767 9.21517 0.181153 9.05274 0.113873C8.89031 0.0465921 8.71622 0.0119629 8.54041 0.0119629C8.18534 0.0119629 7.84481 0.153014 7.59374 0.404085C7.46942 0.528403 7.37081 0.67599 7.30353 0.83842C7.23625 1.00085 7.20162 1.17494 7.20162 1.35075C7.20162 1.70582 7.34267 2.04635 7.59374 2.29742L11.9937 6.68409H1.87374C1.52012 6.68409 1.18098 6.82456 0.93093 7.07461C0.680881 7.32466 0.540405 7.6638 0.540405 8.01742C0.540405 8.37104 0.680881 8.71018 0.93093 8.96023C1.18098 9.21028 1.52012 9.35075 1.87374 9.35075H11.9937L7.59374 13.7374C7.46877 13.8614 7.36958 14.0088 7.30188 14.1713C7.23419 14.3338 7.19934 14.5081 7.19934 14.6841C7.19934 14.8601 7.23419 15.0344 7.30188 15.1969C7.36958 15.3593 7.46877 15.5068 7.59374 15.6308C7.71769 15.7557 7.86516 15.8549 8.02764 15.9226C8.19012 15.9903 8.36439 16.0252 8.54041 16.0252C8.71642 16.0252 8.8907 15.9903 9.05317 15.9226C9.21565 15.8549 9.36312 15.7557 9.48707 15.6308L16.1537 8.96409C16.2751 8.83728 16.3703 8.68775 16.4337 8.52409C16.5671 8.19947 16.5671 7.83537 16.4337 7.51075Z" fill="#17C95F"/>
</svg>
