<svg width="148" height="15" viewBox="0 0 148 15" fill="none" xmlns="http://www.w3.org/2000/svg">
<path d="M9.76519 13.8555L8.98119 11.5035H3.77319L2.98919 13.8555H0.207855L4.78119 0.7888H7.97319L12.5652 13.8555H9.76519ZM4.59452 9.09547H8.17852L6.38652 3.7568L4.59452 9.09547ZM18.3769 14.1168C17.0827 14.1168 15.9938 13.8306 15.1103 13.2581C14.2267 12.6732 13.6045 11.883 13.2436 10.8875L15.4463 9.59947C15.9565 10.931 16.9583 11.5968 18.4516 11.5968C19.1734 11.5968 19.7023 11.4661 20.0383 11.2048C20.3743 10.9435 20.5423 10.6137 20.5423 10.2155C20.5423 9.75502 20.3369 9.40036 19.9263 9.15147C19.5156 8.89014 18.7814 8.61013 17.7236 8.31147C17.1387 8.13725 16.6409 7.96302 16.2303 7.7888C15.8321 7.61458 15.4276 7.38436 15.0169 7.09813C14.6187 6.79947 14.3138 6.42613 14.1023 5.97813C13.8907 5.53013 13.7849 5.00747 13.7849 4.41013C13.7849 3.22791 14.2018 2.28836 15.0356 1.59147C15.8818 0.882134 16.8961 0.527467 18.0783 0.527467C19.1361 0.527467 20.0632 0.7888 20.8596 1.31147C21.6685 1.82169 22.2969 2.53724 22.7449 3.45813L20.5796 4.7088C20.0569 3.5888 19.2232 3.0288 18.0783 3.0288C17.5432 3.0288 17.1201 3.15325 16.8089 3.40213C16.5103 3.63858 16.3609 3.94969 16.3609 4.33547C16.3609 4.74613 16.5289 5.08213 16.8649 5.34347C17.2134 5.59236 17.8729 5.86613 18.8436 6.1648C19.2418 6.28925 19.5405 6.3888 19.7396 6.46347C19.9512 6.52569 20.2312 6.63147 20.5796 6.7808C20.9405 6.91769 21.2143 7.04836 21.4009 7.1728C21.6001 7.29725 21.8241 7.46525 22.0729 7.6768C22.3218 7.88836 22.5085 8.10613 22.6329 8.33013C22.7698 8.55413 22.8818 8.82791 22.9689 9.15147C23.0685 9.46258 23.1183 9.8048 23.1183 10.1781C23.1183 11.3852 22.6765 12.3435 21.7929 13.0528C20.9218 13.7621 19.7832 14.1168 18.3769 14.1168ZM38.0144 3.2528H32.7878V6.35147H37.8651V8.81547H32.7878V13.8555H30.2118V0.7888H38.0144V3.2528ZM42.8408 11.3915H48.3474V13.8555H40.2648V0.7888H48.2541V3.2528H42.8408V6.03413H47.7874V8.4608H42.8408V11.3915ZM59.1371 13.8555L58.3531 11.5035H53.1451L52.3611 13.8555H49.5797L54.1531 0.7888H57.3451L61.9371 13.8555H59.1371ZM53.9664 9.09547H57.5504L55.7584 3.7568L53.9664 9.09547ZM71.2739 0.7888V3.2528H67.7459V13.8555H65.1699V3.2528H61.6606V0.7888H71.2739ZM77.9573 14.1168C76.5013 14.1168 75.3066 13.7061 74.3733 12.8848C73.44 12.0635 72.9733 10.9621 72.9733 9.5808V0.7888H75.5306V9.37547C75.5306 10.0599 75.7235 10.6012 76.1093 10.9995C76.5075 11.3977 77.1235 11.5968 77.9573 11.5968C78.7911 11.5968 79.4009 11.3977 79.7866 10.9995C80.1849 10.6012 80.384 10.0599 80.384 9.37547V0.7888H82.96V9.5808C82.96 10.9621 82.4933 12.0635 81.56 12.8848C80.6266 13.7061 79.4257 14.1168 77.9573 14.1168ZM92.8219 13.8555L90.1899 9.31947H88.2299V13.8555H85.6539V0.7888H90.8806C92.0877 0.7888 93.1144 1.21191 93.9606 2.05813C94.8068 2.90436 95.2299 3.9248 95.2299 5.11947C95.2299 5.92836 94.9997 6.68125 94.5393 7.37813C94.0788 8.06258 93.4691 8.57902 92.7099 8.92747L95.6033 13.8555H92.8219ZM88.2299 3.1968V7.0608H90.8806C91.3659 7.0608 91.7828 6.87413 92.1313 6.5008C92.4797 6.11502 92.6539 5.65458 92.6539 5.11947C92.6539 4.58436 92.4797 4.13013 92.1313 3.7568C91.7828 3.38347 91.3659 3.1968 90.8806 3.1968H88.2299ZM100.069 11.3915H105.576V13.8555H97.4934V0.7888H105.483V3.2528H100.069V6.03413H105.016V8.4608H100.069V11.3915ZM112.955 0.7888C114.747 0.7888 116.24 1.41724 117.435 2.67413C118.642 3.93102 119.245 5.48036 119.245 7.32213C119.245 9.16391 118.642 10.7132 117.435 11.9701C116.24 13.227 114.747 13.8555 112.955 13.8555H107.765V0.7888H112.955ZM112.955 11.3915C114.087 11.3915 115.008 11.0181 115.717 10.2715C116.427 9.51236 116.781 8.52925 116.781 7.32213C116.781 6.11502 116.427 5.13813 115.717 4.39147C115.008 3.63236 114.087 3.2528 112.955 3.2528H110.341V11.3915H112.955ZM134.382 7.07947C135.527 7.73902 136.099 8.73458 136.099 10.0661C136.099 11.1737 135.707 12.0821 134.923 12.7915C134.139 13.5008 133.175 13.8555 132.03 13.8555H126.486V0.7888H131.638C132.758 0.7888 133.697 1.13724 134.456 1.83413C135.228 2.51858 135.614 3.39591 135.614 4.46613C135.614 5.5488 135.203 6.41991 134.382 7.07947ZM131.638 3.1968H129.062V6.07147H131.638C132.036 6.07147 132.366 5.93458 132.627 5.6608C132.901 5.38702 133.038 5.0448 133.038 4.63413C133.038 4.22347 132.907 3.88125 132.646 3.60747C132.384 3.33369 132.048 3.1968 131.638 3.1968ZM132.03 11.4475C132.465 11.4475 132.826 11.3044 133.112 11.0181C133.399 10.7195 133.542 10.3461 133.542 9.89813C133.542 9.46258 133.399 9.10169 133.112 8.81547C132.826 8.5168 132.465 8.36747 132.03 8.36747H129.062V11.4475H132.03ZM147.901 0.7888L143.421 8.75947V13.8555H140.864V8.75947L136.402 0.7888H139.314L142.152 6.23947L144.989 0.7888H147.901Z" fill="#959AA5"/>
</svg>
