<svg width="110" height="93" viewBox="0 0 110 93" fill="none" xmlns="http://www.w3.org/2000/svg">
<g filter="url(#filter0_d_128_352)">
<path d="M70.2954 65.7814C70.5031 65.5834 70.7108 65.3822 70.912 65.1777L71.1263 64.9602C71.2756 64.8109 71.4249 64.6583 71.571 64.5025C71.6521 64.4214 71.7268 64.3402 71.8047 64.2591L72.2331 63.8014L72.3759 63.6456L72.4344 63.5807C72.6811 63.3048 72.9245 63.0289 73.1647 62.7498L73.3075 62.5842C73.5153 62.3375 73.723 62.0876 73.9242 61.8377L74.0606 61.6721C74.291 61.3865 74.515 61.0976 74.7357 60.8055C74.7844 60.7438 74.8299 60.6789 74.8786 60.614C75.0733 60.3521 75.2648 60.0892 75.4531 59.8252C75.4855 59.7765 75.5212 59.7311 75.5537 59.6856C75.7647 59.387 75.9659 59.0851 76.1672 58.7833L76.3067 58.569C76.4917 58.2867 76.6703 58.001 76.8456 57.7154L76.904 57.6245C77.0923 57.2999 77.274 57.0013 77.4525 56.6864C77.4947 56.6085 77.5402 56.5339 77.5824 56.4592C77.7577 56.1346 77.9329 55.81 78.1017 55.4854C78.238 55.2258 78.3679 54.9628 78.4945 54.7032L78.5139 54.6642L78.5983 54.4792C78.6925 54.2812 78.7834 54.0865 78.8742 53.8885C78.9164 53.7878 78.9586 53.6905 79.0041 53.5931C79.0787 53.4178 79.1534 53.2458 79.2248 53.0705C79.2702 52.9666 79.3124 52.8628 79.3546 52.7621C79.4228 52.5901 79.4877 52.4213 79.5526 52.2493L79.6695 51.9474C79.7377 51.7656 79.8026 51.5806 79.8643 51.3989L79.9357 51.2009V51.1554C80.0525 50.8027 80.1607 50.4489 80.2602 50.094C80.283 50.0226 80.3024 49.9512 80.3251 49.8798C80.4225 49.526 80.5167 49.1754 80.6011 48.8281C80.6011 48.8119 80.6011 48.7989 80.6011 48.7827L80.6303 48.6463C80.6855 48.4029 80.7406 48.1627 80.7893 47.9258L80.838 47.6726C80.8932 47.3934 80.9419 47.1143 80.9841 46.8384C80.9856 46.8244 80.9856 46.8102 80.9841 46.7962C81.0263 46.5268 81.062 46.2574 81.0912 45.9912L81.1204 45.7478C81.1399 45.5595 81.1593 45.368 81.1756 45.1797C81.1756 45.1343 81.1756 45.0888 81.1756 45.0434C81.1756 44.998 81.1756 44.946 81.1756 44.8973C81.1756 44.7351 81.1983 44.5728 81.2048 44.4072C81.2048 44.3163 81.2048 44.2254 81.2048 44.1346C81.2048 43.9528 81.2048 43.771 81.2048 43.5892C81.2048 43.5341 81.2048 43.4789 81.2048 43.4205V43.3848C81.2048 43.1413 81.2048 42.9011 81.2048 42.6642C81.2064 42.6393 81.2064 42.6144 81.2048 42.5895C81.2048 42.3753 81.2048 42.161 81.1723 41.9403C81.1739 41.9241 81.1739 41.9078 81.1723 41.8916C81.1723 41.8202 81.1723 41.7521 81.1561 41.6839L81.1172 41.2457C81.1172 41.1516 81.0944 41.0607 81.0847 40.9666C81.075 40.8724 81.0522 40.6939 81.0328 40.5608C81.0328 40.5251 81.0328 40.4862 81.0328 40.4505L81.0036 40.2687C80.9841 40.1421 80.9646 40.0188 80.9419 39.8922C80.9192 39.7656 80.9062 39.6974 80.8899 39.6C80.8737 39.5027 80.8412 39.3534 80.8153 39.23C80.8153 39.1781 80.7958 39.1262 80.7828 39.0775L80.7536 38.9411L80.666 38.5776C80.6433 38.4802 80.6173 38.3861 80.5946 38.2919C80.5719 38.1978 80.5264 38.0485 80.4907 37.9284C80.4907 37.8667 80.4583 37.8018 80.4388 37.7401C80.4316 37.7116 80.4229 37.6834 80.4128 37.6558C80.3738 37.5292 80.3349 37.4091 80.2959 37.2857L80.2083 37.0261C80.1661 36.8962 80.1174 36.7696 80.072 36.6398C80.046 36.5749 80.0233 36.5099 80.0006 36.445V36.4061C79.9356 36.2373 79.8675 36.0815 79.7993 35.9062C79.7993 35.8673 79.7701 35.8283 79.7539 35.7926C79.6673 35.587 79.5764 35.3858 79.4812 35.1889V35.1694L79.4618 35.1337C79.2962 34.7831 79.1372 34.4358 78.9294 34.0983L73.34 24.0977C73.5283 24.4222 73.7068 24.7825 73.8723 25.1331L73.9015 25.1883C73.9957 25.3895 74.0865 25.5875 74.1709 25.792L74.2196 25.9056C74.2878 26.0712 74.356 26.2302 74.4209 26.4055C74.4501 26.4834 74.4793 26.5613 74.5053 26.6392C74.554 26.769 74.6026 26.8956 74.6448 27.0255L74.7325 27.2851L74.8493 27.6552L74.9272 27.9311C74.9629 28.0512 74.9954 28.1712 75.0279 28.2913C75.0603 28.4114 75.0765 28.4829 75.1025 28.577C75.1285 28.6711 75.1609 28.8172 75.1869 28.9405C75.2129 29.0639 75.2323 29.132 75.2518 29.2294C75.2713 29.3268 75.3005 29.4761 75.3232 29.5994C75.346 29.7228 75.3622 29.7942 75.3784 29.8916C75.3946 29.9889 75.4206 30.1415 75.4401 30.2681C75.4596 30.3947 75.4693 30.4628 75.4823 30.5602C75.4953 30.6576 75.518 30.8296 75.5342 30.966C75.5504 31.1023 75.5569 31.1542 75.5667 31.2451L75.6056 31.6833L75.6251 31.9397C75.6251 32.1507 75.6511 32.3649 75.6575 32.5889C75.6575 32.6149 75.6575 32.6409 75.6575 32.6668C75.6575 32.9038 75.6575 33.144 75.6575 33.3874C75.6575 33.4556 75.6575 33.5237 75.6575 33.5919C75.6575 33.7737 75.6575 33.9554 75.6575 34.1372C75.6575 34.2281 75.6575 34.3222 75.6575 34.4131C75.6575 34.5754 75.6478 34.7377 75.6283 34.9C75.6283 34.9941 75.6284 35.0883 75.6056 35.1824C75.6056 35.3707 75.5732 35.5622 75.5504 35.7504C75.5504 35.8316 75.5505 35.9127 75.5245 35.9939C75.492 36.26 75.4563 36.5294 75.4174 36.7988V36.8443C75.3752 37.1234 75.3232 37.4026 75.2713 37.6817C75.2713 37.7661 75.2388 37.8505 75.2194 37.9349C75.1707 38.1751 75.1187 38.412 75.0636 38.6555C75.0636 38.7139 75.0376 38.7756 75.0214 38.8372C74.937 39.1846 74.8428 39.5351 74.7422 39.8889C74.7227 39.9603 74.7032 40.0317 74.6805 40.1032C74.5767 40.457 74.4663 40.8108 74.3559 41.1646C74.33 41.2457 74.3008 41.3269 74.2716 41.408C74.2099 41.5898 74.145 41.7716 74.0768 41.9566L73.9599 42.2584C73.895 42.4305 73.8301 42.583 73.7587 42.7713C73.7198 42.8751 73.6776 42.979 73.6321 43.0959C73.5607 43.2711 73.4861 43.4432 73.4114 43.6185C73.366 43.7158 73.3238 43.8132 73.2783 43.9138C73.1907 44.1118 73.0998 44.3098 73.0057 44.5046C72.97 44.5792 72.9375 44.6539 72.8985 44.7286C72.7752 44.9882 72.6421 45.2511 72.509 45.5141C72.3403 45.8386 72.165 46.1632 71.9865 46.4878L71.8599 46.715C71.6813 47.0396 71.4996 47.3415 71.3113 47.6531L71.2529 47.744C71.0776 48.0296 70.8958 48.3153 70.714 48.5977C70.6654 48.6691 70.6199 48.7405 70.5745 48.8119C70.3733 49.1138 70.1688 49.4156 69.961 49.7142L69.8604 49.8538C69.6721 50.12 69.4806 50.3796 69.2859 50.6426L69.1398 50.8373C68.9223 51.1262 68.6984 51.4151 68.4679 51.7007L68.3316 51.8695C68.1303 52.1195 67.9226 52.3661 67.7148 52.6128L67.572 52.7784C67.3318 53.0575 67.0884 53.3367 66.8417 53.6093C66.7736 53.684 66.7054 53.7554 66.6405 53.83C66.4977 53.9826 66.3548 54.1546 66.212 54.2877L65.9815 54.5312L65.5336 54.9921L65.3194 55.2063C65.1181 55.4075 64.9136 55.6055 64.7091 55.8035L64.6507 55.862C64.4235 56.0794 64.1963 56.2904 63.9659 56.5111L63.8263 56.6377C63.493 56.9472 63.1522 57.249 62.8038 57.5433C62.4597 57.8387 62.1059 58.1308 61.7489 58.4197L61.5996 58.5398C61.3107 58.7703 61.0186 59.0007 60.7232 59.2247L60.5284 59.374C60.272 59.5688 60.0123 59.7603 59.7494 59.9518L59.5742 60.0784C59.2983 60.2764 59.0191 60.4744 58.7367 60.6691L58.5517 60.7925C58.3245 60.9483 58.094 61.1008 57.8636 61.2534C57.7759 61.3118 57.6883 61.3703 57.5974 61.4254C57.3962 61.5585 57.1949 61.6851 56.9904 61.8117L56.7632 61.9578L55.9258 62.4641L55.8673 62.4966C55.322 62.8212 54.767 63.1458 54.2087 63.4379L54.0496 63.5223C53.5238 63.8058 52.9915 64.0784 52.4526 64.3402L52.3455 64.3954C51.7872 64.6681 51.2225 64.931 50.6577 65.1809L50.5895 65.2101C50.0474 65.4471 49.5021 65.6776 48.9665 65.895L48.8043 65.9567C48.2752 66.1644 47.7461 66.3657 47.2105 66.5539L47.045 66.6124C46.4835 66.8071 45.9187 66.9954 45.3506 67.1674L45.2825 67.1901C44.6895 67.3719 44.0934 67.5407 43.494 67.6965L43.2311 67.7647L42.6208 67.914C42.5137 67.9432 42.4034 67.9691 42.2963 67.9919C42.0983 68.0406 41.9035 68.0828 41.7055 68.125C41.5984 68.1477 41.4945 68.1736 41.3809 68.1931C41.105 68.2548 40.8259 68.31 40.5467 68.3619L40.4363 68.3846C40.1117 68.4431 39.8099 68.4982 39.495 68.5469L39.2484 68.5859C38.9789 68.6281 38.7128 68.6703 38.4466 68.706L38.1739 68.7417C37.8494 68.7871 37.5021 68.8261 37.1677 68.8618H37.0898C36.7263 68.8975 36.366 68.9299 36.0025 68.9559L35.7688 68.9754C35.3955 69.0014 35.0254 69.0208 34.6522 69.0338H34.4801C34.003 69.05 33.5258 69.0598 33.0519 69.0565H32.8929C32.419 69.0565 31.9451 69.0403 31.4744 69.0176H31.3121C30.8642 68.9916 30.4162 68.9624 29.9683 68.9202H29.8645C29.4003 68.8747 28.9361 68.8196 28.4752 68.7547C20.5942 67.6511 14.8749 63.8469 11.8984 58.5236L17.4879 68.5242C20.4643 73.8442 26.1836 77.6517 34.0647 78.7553C34.5256 78.8202 34.9897 78.8754 35.4571 78.9208H35.5578C36.0057 78.963 36.4536 78.9922 36.9016 79.0182H37.0054H37.0639C37.5345 79.0409 38.0084 79.0506 38.4823 79.0571H38.6414C39.1153 79.0571 39.5924 79.0571 40.0696 79.0344H40.1702H40.2448C40.6149 79.0344 40.9849 78.9987 41.3582 78.9727H41.5919C41.9554 78.9468 42.3157 78.9143 42.6793 78.8786H42.7377H42.7571C43.0817 78.8429 43.4258 78.804 43.7634 78.7585L44.0361 78.7228L44.8345 78.6027L45.0033 78.58L45.0845 78.5637C45.4091 78.5118 45.7142 78.4599 46.0258 78.4014L46.1394 78.3787L46.9736 78.21L47.084 78.1872L47.2884 78.1418L47.8792 78.0087L48.2038 77.9308L48.814 77.7815L49.0217 77.7263H49.0737C49.6709 77.5705 50.2671 77.4017 50.8622 77.2199H50.8849L50.9336 77.2037C51.4984 77.0284 52.0631 76.8434 52.6279 76.6487L52.6993 76.6227L52.7902 76.5902C53.3258 76.3987 53.8549 76.2007 54.384 75.993L54.4748 75.9605L54.5463 75.9313C55.0948 75.7106 55.6401 75.4834 56.1692 75.2432H56.2179H56.2374C56.8054 74.99 57.3669 74.7304 57.9252 74.4577L57.9642 74.4382L58.0324 74.4025C58.5712 74.1385 59.1035 73.8659 59.6293 73.5846L59.7137 73.5424L59.7884 73.4969C60.3467 73.195 60.9017 72.8834 61.447 72.5621L61.4827 72.5426L61.5087 72.5264C61.7878 72.3608 62.067 72.2018 62.3429 72.02L62.5701 71.874L63.1803 71.4877L63.3102 71.4033L63.4432 71.3157C63.6737 71.1631 63.9041 71.0106 64.1314 70.8547L64.3164 70.7314C64.5988 70.5366 64.8779 70.3386 65.1538 70.1406L65.2123 70.1017L65.3324 70.0108C65.592 69.8226 65.8517 69.631 66.1081 69.4363L66.3029 69.287C66.5983 69.063 66.8904 68.8326 67.1793 68.6021L67.2377 68.5566L67.3286 68.482C67.6856 68.1931 68.0395 67.901 68.3835 67.6056C68.7276 67.3102 69.0684 67.0084 69.4027 66.7033L69.4871 66.6286L69.5423 66.5767C69.7727 66.3657 70.0032 66.1515 70.2272 65.9275L70.2954 65.7814Z" fill="url(#paint0_linear_128_352)"/>
<path d="M56.8058 13.8581C40.3005 11.5406 20.5784 21.9437 12.7526 37.0922C4.92674 52.2408 11.9574 66.3961 28.4627 68.7105C44.9681 71.0248 64.6901 60.6249 72.5192 45.4796C80.3483 30.3343 73.308 16.1725 56.8058 13.8581Z" fill="url(#paint1_linear_128_352)"/>
<path d="M54.5022 18.3306C40.6812 16.3831 24.1661 25.1016 17.6127 37.7865C11.0592 50.4715 16.9635 62.3255 30.7683 64.2633C44.573 66.2011 61.1043 57.4858 67.648 44.8074C74.1917 32.1289 68.3199 20.2717 54.5022 18.3306Z" fill="#FFB91C"/>
<path d="M53.9052 19.4737C40.7723 17.63 25.0784 25.907 18.8496 37.9753C12.6207 50.0435 18.2198 61.2905 31.3495 63.1342C44.4791 64.9778 60.1762 56.7008 66.4051 44.6326C72.634 32.5644 67.0348 21.3141 53.9052 19.4737Z" fill="url(#paint2_linear_128_352)"/>
<path d="M50.0576 28.6562L47.4609 33.5802L44.9063 38.4003L42.2934 43.3276L40.216 47.2486C40.9401 47.2666 41.6558 47.09 42.2884 46.7372C42.921 46.3844 43.4473 45.8682 43.8124 45.2427C44.2669 44.3825 43.8774 43.5743 42.9426 43.4282L42.2934 43.3276L44.9063 38.4036L45.5555 38.501C49.4506 39.1047 51.0735 42.4999 49.1942 46.0704C47.1006 50.0206 41.9493 52.7179 37.603 52.1824L35.9639 55.2692L30.5854 54.4383L32.2084 51.3547L28.2679 50.7477C26.184 50.4231 25.3109 48.6119 26.3203 46.7033L27.2584 44.9311L32.6401 45.762L32.4745 46.0866L34.8181 46.4469L36.902 42.5161L39.4987 37.5889L42.0467 32.7784C41.3217 32.7622 40.6056 32.9402 39.9726 33.2941C39.3396 33.648 38.8129 34.1648 38.447 34.7909L37.9763 35.677C37.5219 36.5339 37.9147 37.3454 38.8462 37.4882L39.4954 37.5889L36.8987 42.5161L36.2495 42.4155C32.3544 41.8118 30.7315 38.4166 32.6141 34.8461L33.0848 33.96C35.1784 30.0097 40.3296 27.3091 44.6791 27.8447L45.9483 25.4492L51.3299 26.2802L50.0576 28.6562ZM54.8777 35.32L55.9424 33.3075C56.9551 31.3989 56.0819 29.5845 53.9948 29.2631L50.0543 28.6562L47.4576 33.5802L49.8011 33.9437L49.509 34.4923L54.8777 35.32Z" fill="white"/>
<path d="M40.5268 46.6377L42.2676 43.3473L42.5205 42.8739H42.4849L41.8365 42.7734L39.7617 46.6896C40.0179 46.7012 40.2745 46.6838 40.5268 46.6377Z" fill="#BF7200"/>
<path d="M49.6136 28.0635L47.0039 32.9908L49.6136 28.0635L50.3017 28.1706L51.3145 26.2556L50.6296 26.1484L49.6136 28.0635Z" fill="#BF7200"/>
<path d="M43.495 43.6426C43.4267 43.4308 43.2984 43.2434 43.1258 43.103C42.9532 42.9626 42.7436 42.8753 42.5224 42.8516L42.2695 43.3249L42.9179 43.4254C43.1238 43.4549 43.3207 43.529 43.495 43.6426Z" fill="#BF7200"/>
<path d="M49.3554 33.3583L47.7021 33.1055L47.4492 33.5788L49.1026 33.8349L49.3554 33.3583Z" fill="#BF7200"/>
<path d="M38.03 34.1866L37.5599 35.0813C37.2163 35.7297 37.3589 36.3456 37.8484 36.6731C37.7611 36.3303 37.8124 35.9669 37.9911 35.6616L38.4611 34.7766C38.7623 34.2655 39.1718 33.8266 39.6607 33.4906C40.1496 33.1545 40.7062 32.9296 41.2913 32.8315L41.6155 32.2026C40.8952 32.1835 40.1829 32.3573 39.5524 32.7062C38.922 33.055 38.3963 33.5662 38.03 34.1866Z" fill="#BF7200"/>
<path d="M41.8438 42.7363L44.4405 37.8091L45.0896 37.9097H45.1286L47.4299 33.5634L47.6831 33.0895L46.9982 32.9824L44.4437 37.8026L41.8438 42.7363Z" fill="#BF7200"/>
<path d="M55.6808 30.0547C56.0671 30.7948 56.0476 31.749 55.5283 32.7325L54.4604 34.745L49.7669 34.0212L49.5137 34.4983L54.8954 35.326L55.96 33.3136C56.6286 32.0509 56.4696 30.8272 55.6808 30.0547Z" fill="#BF7200"/>
<path d="M48.8843 40.1836C49.7704 41.6085 49.7996 43.5204 48.7544 45.4874C46.6641 49.4344 41.5096 52.1317 37.1634 51.5994L35.5405 54.6862L30.8469 53.9592L30.5938 54.4363L35.9722 55.2672L37.6113 52.1804C41.9576 52.716 47.1088 50.0187 49.2024 46.0684C50.3806 43.819 50.1729 41.641 48.8843 40.1836Z" fill="#BF7200"/>
<path d="M31.7639 50.7636L27.8201 50.1566C27.197 50.0771 26.6152 49.8021 26.1582 49.3711C26.3724 49.7505 26.6747 50.0727 27.0397 50.3105C27.4047 50.5484 27.8215 50.6949 28.2551 50.7376L31.501 51.2407L31.7639 50.7636Z" fill="#BF7200"/>
<path d="M38.8216 37.4688L36.4648 41.9133L38.8216 37.4688Z" fill="#BF7200"/>
<path d="M32.4902 40.1328C33.2067 41.2869 34.4872 42.1168 36.2183 42.4021L36.468 41.9256L35.8196 41.8251C34.5449 41.6716 33.3655 41.0721 32.4902 40.1328Z" fill="#BF7200"/>
</g>
<defs>
<filter id="filter0_d_128_352" x="0.032196" y="-5.30033" width="109.741" height="103.611" filterUnits="userSpaceOnUse" color-interpolation-filters="sRGB">
<feFlood flood-opacity="0" result="BackgroundImageFix"/>
<feColorMatrix in="SourceAlpha" type="matrix" values="0 0 0 0 0 0 0 0 0 0 0 0 0 0 0 0 0 0 127 0" result="hardAlpha"/>
<feOffset dx="9.52249" dy="0.209495"/>
<feGaussianBlur stdDeviation="9.52249"/>
<feComposite in2="hardAlpha" operator="out"/>
<feColorMatrix type="matrix" values="0 0 0 0 0 0 0 0 0 0 0 0 0 0 0 0 0 0 0.1 0"/>
<feBlend mode="normal" in2="BackgroundImageFix" result="effect1_dropShadow_128_352"/>
<feBlend mode="normal" in="SourceGraphic" in2="effect1_dropShadow_128_352" result="shape"/>
</filter>
<linearGradient id="paint0_linear_128_352" x1="13.7176" y1="79.7527" x2="81.0277" y2="37.9662" gradientUnits="userSpaceOnUse">
<stop stop-color="#FF9500"/>
<stop offset="0.29" stop-color="#CD7D29"/>
<stop offset="0.91" stop-color="#F7BB57"/>
<stop offset="1" stop-color="#FEC55E"/>
</linearGradient>
<linearGradient id="paint1_linear_128_352" x1="5.51962" y1="66.8804" x2="65.7127" y2="25.4009" gradientUnits="userSpaceOnUse">
<stop stop-color="#F28F3B"/>
<stop offset="0.49" stop-color="#F7A74B"/>
<stop offset="1" stop-color="#FEC55E"/>
</linearGradient>
<linearGradient id="paint2_linear_128_352" x1="42.6273" y1="19.2168" x2="42.6273" y2="63.3911" gradientUnits="userSpaceOnUse">
<stop stop-color="#FCC038"/>
<stop offset="1" stop-color="#F0A700"/>
</linearGradient>
</defs>
</svg>
