<svg width="184" height="36" viewBox="0 0 184 36" fill="none" xmlns="http://www.w3.org/2000/svg">
<g clip-path="url(#clip0_128_435)">
<path fill-rule="evenodd" clip-rule="evenodd" d="M20.6317 0.288379H25.059V25.7285H20.6254L20.6317 0.288379ZM38.3676 10.6584L39.6248 10.7982L40.7343 11.1923L41.6777 11.7979L42.4484 12.5622L43.0435 13.4406L43.4669 14.3886L43.7213 15.3695L43.8093 16.3442L43.7386 17.308L43.5224 18.2628L43.1475 19.1934L42.5942 20.0522L41.8514 20.7994L40.9199 21.3837L39.8068 21.7546L38.5273 21.8831L37.2345 21.7477L36.0985 21.3608L35.1375 20.7682L34.3634 20.021L33.7673 19.1748L33.3476 18.2673L33.0969 17.3436L33.0138 16.433L33.0959 15.5183L33.3396 14.5668L33.7421 13.6195L34.3159 12.7171L35.0614 11.9103L35.9929 11.2533L37.1014 10.8146L38.3676 10.6584ZM28.8234 16.507L29.0419 18.5651L29.6589 20.4306L30.6212 22.0935L31.8785 23.522L33.3725 24.6894L35.0461 25.5602L36.8364 26.1031L38.6827 26.2879L40.5015 26.0942L42.228 25.5318L43.8193 24.6328L45.2286 23.4291L46.4045 21.9592L47.3031 20.2534L47.8759 18.3496L48.0788 16.2743L47.861 14.2029L47.2476 12.2945L46.2886 10.5778L45.0366 9.08762L43.5443 7.86511L41.8716 6.9483L40.0761 6.37423L38.2175 6.17442L36.3847 6.38314L34.6523 6.97709L33.06 7.92337L31.6553 9.1805L30.4811 10.7115L29.5895 12.4711L29.0216 14.4178L28.8234 16.507ZM60.6117 10.6584L61.8689 10.7982L62.9784 11.1923L63.9228 11.7979L64.6935 12.5622L65.289 13.4406L65.7114 14.3886L65.9664 15.3695L66.0547 16.3442L65.983 17.308L65.7678 18.2628L65.3919 19.1934L64.8387 20.0522L64.0958 20.8001L63.1643 21.3837L62.0506 21.7546L60.7717 21.8831L59.479 21.7477L58.3429 21.3608L57.3812 20.7682L56.6068 20.021L56.0108 19.1735L55.5917 18.267L55.342 17.3433L55.2589 16.4327L55.3403 15.5179L55.5847 14.5665L55.9875 13.6192L56.5603 12.7168L57.3068 11.91L58.2383 11.253L59.3468 10.8143L60.6117 10.6584ZM51.0668 16.507L51.2863 18.5651L51.9033 20.4306L52.8657 22.0935L54.1229 23.522L55.6159 24.6894L57.2902 25.5602L59.0798 26.1031L60.9255 26.2879L62.7449 26.0939L64.4704 25.5315L66.062 24.6325L67.473 23.4288L68.6479 21.9588L69.5465 20.2531L70.1203 18.3492L70.3226 16.274L70.1057 14.2025L69.492 12.2942L68.532 10.5775L67.2801 9.08728L65.7877 7.86476L64.1161 6.94796L62.3205 6.37389L60.4622 6.17408L58.6295 6.3828L56.8974 6.97675L55.3041 7.92303L53.8991 9.18016L52.7259 10.7111L51.8332 12.4707L51.2657 14.4174L51.0668 16.507ZM73.9269 6.73307H77.428V10.2776L80.0726 7.70128L81.3661 6.87667L82.7097 6.39856L84.0592 6.26661L85.3742 6.49316L86.6348 7.08985L87.809 8.09199L89.652 10.6388L90.8193 8.6102L91.4595 7.8747L92.2329 7.25847L93.1176 6.767L94.0852 6.41399L95.11 6.19807L96.1591 6.13124L97.2061 6.21246L98.2153 6.44963L99.1653 6.83657L100.029 7.37603L100.785 8.06732L101.413 8.91763L101.897 9.93965L102.211 11.1509L102.327 12.6006V25.7285H97.9785L98.0519 13.9701L97.5312 12.2089L96.5512 10.9747L95.2648 10.3334L93.8877 10.255L92.569 10.6508L91.4207 11.4504L90.5593 12.6188L90.1525 14.0538V25.648H85.9524V14.9956L85.6545 13.0544L84.7785 11.5813L83.4894 10.7334L82.0319 10.5281L80.6069 10.9065L79.3756 11.8127L78.5116 13.2L78.2084 14.9041V25.6483H73.8565L73.9269 6.73307ZM106.314 0.20818H110.512V9.72407L112.52 7.87025L113.137 7.44869L113.775 7.12584L114.412 6.89038L115.019 6.73067L115.576 6.63333L116.389 6.5737L117.999 6.7341L119.627 7.20329L121.211 7.98609L122.672 9.0794L123.93 10.4839L124.919 12.1952L125.57 14.2275L125.807 16.5907L125.605 18.464L125.037 20.2051L124.149 21.7868L122.997 23.167L121.632 24.3083L120.118 25.1637L118.515 25.7004L116.857 25.8865L116.024 25.8457L115.273 25.7285L114.61 25.551L114.013 25.3207L113.464 25.0537L112.444 24.4292L110.668 23.2283V25.7285H106.314V0.20818H106.314ZM110.429 16.19L110.559 17.4643L110.929 18.6066L111.495 19.6012L112.222 20.4292L113.062 21.0886L113.986 21.5668L114.957 21.8632L115.944 21.9643L116.929 21.868L117.905 21.5835L118.837 21.1215L119.694 20.481L120.436 19.6697L121.022 18.6865L121.404 17.5486L121.541 16.2723L121.408 14.9997L121.041 13.8485L120.475 12.8453L119.753 12.0008L118.913 11.3294L117.992 10.8345L117.019 10.5271L116.026 10.4184L115.032 10.5209L114.055 10.816L113.122 11.2948L112.268 11.9484L111.528 12.7768L110.944 13.7693L110.564 14.9161L110.429 16.19ZM159.087 7.67626L159.752 7.21632L160.413 6.8873L161.042 6.68577L161.608 6.59461L161.877 6.59975V10.7687L161.108 10.7858L160.145 10.925L159.175 11.2156L158.247 11.716L157.451 12.4765L156.907 13.5253L156.726 14.7567V25.8101H152.224L152.439 6.73273H156.334V10.9175L158.442 8.27878L159.087 7.67626ZM5.53191 14.5857L9.45738 14.6124L10.6196 14.9486L11.5166 15.6917L12.0516 16.6698L12.2555 17.7398L12.1535 18.8146L11.749 19.8113L11.0112 20.6273L9.97509 21.0732H5.54851L5.53191 14.5857ZM5.5349 4.6222L9.01671 4.64516L10.0475 4.94505L10.8478 5.60926L11.3246 6.48116L11.506 7.42984L11.4143 8.38228L11.0557 9.26961L10.3928 10.0017L9.46502 10.4013H5.54851L5.5349 4.6222ZM0.332599 25.5674H10.8521L12.1767 25.4002L13.3613 24.9389L14.4405 24.2219L15.3883 23.2801L16.1703 22.1717L16.7577 20.9447L17.125 19.6581L17.2545 18.3475L17.1838 17.113L16.9842 16.0474L16.6687 15.1577L16.25 14.4219L15.727 13.8139L15.0974 13.3111L14.3499 12.9019L11.4668 11.8404L13.9275 10.7314L14.3731 10.4085L14.7885 9.97049L15.1618 9.41493L15.4753 8.74969L15.7163 7.97375L15.8701 7.09533L15.9256 6.14392L15.8372 5.32685L15.5623 4.37714L15.0847 3.36506L14.4073 2.37972L13.527 1.49924L12.4394 0.787736L11.1304 0.309628L9.52911 0.126953H0.320312L0.332599 25.5674ZM175.025 35.7962L173.001 35.6879L171.187 35.3599L169.606 34.8283L168.272 34.1042L167.184 33.1997L166.343 32.1167L165.745 30.8434L165.627 30.3365H170.608L170.677 30.4846L171.121 31.073L171.643 31.5323L172.207 31.8678L172.782 32.1023L173.355 32.249L173.901 32.3298L174.422 32.3518L175.004 32.3117L175.714 32.1832L176.498 31.9508L177.31 31.5878L178.095 31.0652L178.783 30.3396L179.267 29.3892L179.436 28.3007V22.316L177.428 24.1756L176.81 24.5961L176.171 24.92L175.537 25.1538L174.926 25.3145L174.372 25.4088L173.561 25.4677L171.946 25.3097L170.318 24.8405L168.734 24.0581L167.274 22.9637L166.015 21.562L165.027 19.8497L164.377 17.8193L164.142 15.4507L164.343 13.5801L164.911 11.8384L165.797 10.2574L166.95 8.87513L168.313 7.73624L169.828 6.8801L171.432 6.34236L173.092 6.15317L173.922 6.19601L174.674 6.31357L175.337 6.49282L175.934 6.72039L176.482 6.9908C177.45 7.55459 178.358 8.18453 179.282 8.80007V6.31288H183.637L183.653 27.8291L183.475 29.5983L182.983 31.132L182.206 32.4721L181.172 33.6099L179.907 34.5356L178.442 35.2204L176.807 35.6495L175.025 35.7962ZM179.519 15.8528L179.387 14.5802L179.019 13.4362L178.449 12.4447L177.726 11.6142L176.883 10.9579L175.963 10.4784L174.992 10.1823L174.006 10.0788L173.017 10.1778L172.043 10.4616L171.11 10.9253L170.255 11.5608L169.512 12.3751L168.926 13.3567L168.544 14.4973L168.41 15.7681L168.539 17.0451L168.907 18.1946L169.471 19.2002L170.195 20.0423L171.033 20.7158L171.957 21.2096L172.929 21.5167L173.924 21.6233L174.915 21.5222L175.893 21.2264L176.826 20.7504L177.681 20.0951L178.42 19.2691L179.004 18.2759L179.384 17.1301L179.519 15.8528ZM148.074 12.8223L147.591 11.7366L146.861 10.5291L145.992 9.45023L144.995 8.50121L143.893 7.69443L142.701 7.04701L141.447 6.5689L140.145 6.2745L138.837 6.17305L136.991 6.38348L135.259 6.97744L133.665 7.92371L132.261 9.18085L131.087 10.7118L130.195 12.4714L129.627 14.4181L129.428 16.5074L129.648 18.5655L130.264 20.4309L131.227 22.0939L132.484 23.5224L133.977 24.6897L135.651 25.5606L137.441 26.1035L139.297 26.2889L140.74 26.1703L142.14 25.8235L143.463 25.2638L144.692 24.5005L145.796 23.5546L146.755 22.4359L147.545 21.1634L147.666 20.8796H143.263C142.949 21.2062 142.592 21.4554 142.224 21.7049L141.697 21.9859L141.12 22.2162L140.498 22.3849L139.836 22.4887L139.121 22.5247L138.04 22.4356L137.044 22.1785L136.15 21.7803L135.367 21.2614L134.69 20.6561L134.124 19.9847L133.664 19.2739L132.726 17.3488H148.456V17.3087H148.637C148.691 16.7524 148.686 16.2047 148.671 15.6557L148.62 15.0607L148.535 14.4856L148.418 13.9229L148.264 13.3717L148.074 12.8223ZM138.977 10.0983L139.905 10.1696L140.768 10.3739L141.557 10.6933L142.272 11.1125L142.904 11.6173L143.457 12.1808L143.928 12.7925L145.103 14.7098H132.92L134.12 12.797L134.59 12.1934L135.133 11.6344L135.756 11.1296L136.454 10.707L137.228 10.3807L138.07 10.172L138.977 10.0983Z" fill="#959AA5"/>
</g>
<defs>
<clipPath id="clip0_128_435">
<rect width="183.442" height="35.6693" fill="white" transform="translate(0.261719 0.126953)"/>
</clipPath>
</defs>
</svg>
