<svg width="109" height="26" viewBox="0 0 109 26" fill="none" xmlns="http://www.w3.org/2000/svg">
<path d="M24.8939 16.3259L35.4106 10.2512L33.7481 7.37612L23.2314 13.4477L29.303 2.93095L26.4248 1.26958L20.3532 11.7852V0.347656H17.0294V11.7852L10.9621 1.26958L8.0786 2.93095L14.1501 13.4477L3.63449 7.37612L1.97312 10.2512L12.4898 16.3227H0.345703V19.6465H14.7485C14.5586 19.0296 14.5162 18.3767 14.6246 17.7403C14.7331 17.104 14.9893 16.502 15.3728 15.9828C15.7563 15.4635 16.2562 15.0415 16.8325 14.7507C17.4088 14.4599 18.0453 14.3084 18.6908 14.3084C19.3363 14.3084 19.9728 14.4599 20.5491 14.7507C21.1253 15.0415 21.6253 15.4635 22.0088 15.9828C22.3923 16.502 22.6485 17.104 22.757 17.7403C22.8654 18.3767 22.823 19.0296 22.6331 19.6465H37.0359V16.3259H24.8939Z" fill="#17C95F"/>
<path d="M69.2173 8.20175H70.8798V19.6499H67.556V8.20175H69.2173ZM61.5088 8.20175C60.2369 8.20315 59.0175 8.70904 58.1181 9.60842C57.2187 10.5078 56.7129 11.7272 56.7115 12.9991V13.4574V16.5532V19.6499H60.0395V13.4574V12.9991C60.0395 12.6106 60.1939 12.2379 60.4686 11.9632C60.7434 11.6884 61.116 11.534 61.5046 11.534C61.8932 11.534 62.2658 11.6884 62.5406 11.9632C62.8153 12.2379 62.9697 12.6106 62.9697 12.9991H66.302C66.3006 11.7272 65.7947 10.5078 64.8953 9.60842C63.9959 8.70904 62.7765 8.20315 61.5046 8.20175H61.5088ZM53.7367 9.92677C54.4215 10.6115 54.9269 11.4546 55.208 12.3813C55.4892 13.3081 55.5375 14.2898 55.3486 15.2397C55.1597 16.1895 54.7395 17.0781 54.1252 17.8268C53.5109 18.5754 52.7214 19.161 51.8267 19.5317C50.9321 19.9024 49.9598 20.0467 48.996 19.9519C48.0322 19.857 47.1067 19.526 46.3014 18.988C45.4961 18.4501 44.8359 17.7218 44.3793 16.8678C43.9227 16.0138 43.6837 15.0603 43.6836 14.0919C43.6836 14.0155 43.6836 13.9402 43.6889 13.8648C43.6942 13.7895 43.6963 13.7163 43.7027 13.641C43.6963 13.5858 43.691 13.5349 43.6889 13.4744C43.6868 13.414 43.6836 13.3609 43.6836 13.3047V3.67383H47.0074V8.79161C48.1083 8.25913 49.3477 8.08254 50.5535 8.28633C51.7594 8.49013 52.8719 9.0642 53.7367 9.92889V9.92677ZM52.1379 14.0919C52.1391 13.4981 51.9344 12.9223 51.5587 12.4626C51.183 12.0029 50.6595 11.6876 50.0774 11.5706C49.4953 11.4536 48.8907 11.542 48.3665 11.8208C47.8423 12.0996 47.431 12.5516 47.2026 13.0996C46.9743 13.6477 46.9431 14.258 47.1143 14.8265C47.2855 15.395 47.6485 15.8866 48.1415 16.2175C48.6345 16.5483 49.2269 16.698 49.8179 16.6411C50.4089 16.5841 50.9619 16.3239 51.3825 15.9049C51.6217 15.6674 51.8115 15.3849 51.9411 15.0738C52.0707 14.7626 52.1376 14.4289 52.1379 14.0919ZM95.3558 9.53C94.3618 8.68128 92.9889 8.20175 91.4729 8.20175C91.0958 8.20173 90.7197 8.24048 90.3505 8.31739C89.9919 8.39195 89.6419 8.50249 89.3055 8.64733V3.67383H85.9817V13.2442C85.9817 13.276 85.9817 13.3079 85.9817 13.3407C85.9817 13.3736 85.9817 13.4044 85.987 13.4352C85.9923 13.4659 85.987 13.5222 85.9817 13.5657C85.9764 13.6092 85.9817 13.6516 85.9817 13.6951V19.652H89.3055V13.4606C89.3069 12.8923 89.5336 12.3478 89.936 11.9465C90.3383 11.5451 90.8834 11.3197 91.4517 11.3197C92.0264 11.3214 92.5779 11.5462 92.99 11.9467C93.1952 12.1421 93.3587 12.3769 93.4709 12.637C93.583 12.8972 93.6414 13.1773 93.6425 13.4606V19.6499H96.9641V13.1318C96.9641 11.6157 96.3488 10.383 95.3558 9.53ZM69.2173 3.67383C68.8322 3.67336 68.4588 3.80648 68.1608 4.05049C67.8628 4.2945 67.6586 4.63431 67.5831 5.01199C67.5076 5.38968 67.5654 5.78186 67.7466 6.12171C67.9279 6.46155 68.2214 6.72803 68.5771 6.87571C68.9328 7.02339 69.3287 7.04314 69.6974 6.9316C70.066 6.82005 70.3846 6.58412 70.5988 6.264C70.813 5.94388 70.9095 5.55939 70.8719 5.17607C70.8344 4.79274 70.6651 4.4343 70.3928 4.16184C70.2387 4.00709 70.0555 3.88431 69.8538 3.80057C69.652 3.71682 69.4358 3.67375 69.2173 3.67383ZM104.886 15.2525C104.868 15.6287 104.707 15.9838 104.435 16.2441C104.163 16.5045 103.801 16.6501 103.424 16.6508C103.231 16.6509 103.041 16.6131 102.863 16.5395C102.685 16.466 102.523 16.3581 102.387 16.222C102.251 16.086 102.143 15.9244 102.069 15.7466C101.996 15.5687 101.958 15.3781 101.958 15.1857V14.5056V11.5245H107.275V8.20175H101.955V4.59469H98.6298V14.5035V15.1835C98.6207 16.4556 99.1174 17.6791 100.011 18.585C100.904 19.4908 102.12 20.0048 103.392 20.0138C104.664 20.0228 105.888 19.5261 106.794 18.633C107.699 17.7399 108.213 16.5235 108.222 15.2514H104.89L104.886 15.2525ZM83.8578 11.7993C84.1635 12.5249 84.3204 13.3045 84.3193 14.0919V16.8343V19.5767C84.3173 21.1365 83.6967 22.6318 82.5937 23.7346C81.4907 24.8374 79.9953 25.4577 78.4355 25.4594H74.9345V22.1494H78.4355C79.1172 22.148 79.7705 21.8764 80.2524 21.3942C80.7342 20.912 81.0052 20.2584 81.0061 19.5767V19.39C79.9048 19.9247 78.6642 20.1027 77.457 19.8995C76.2498 19.6962 75.1359 19.1217 74.2704 18.2559C73.7319 17.7189 73.3018 17.0831 73.0037 16.3834C72.5483 15.3048 72.4251 14.1148 72.6498 12.9657C72.8745 11.8167 73.4369 10.7608 74.2651 9.93314C74.9479 9.25122 75.7877 8.74737 76.7108 8.46584C77.6338 8.18432 78.6118 8.13372 79.559 8.3185C80.5061 8.50328 81.3935 8.91779 82.143 9.52561C82.8925 10.1334 83.4813 10.916 83.8578 11.8046V11.7993ZM80.9933 14.0919C80.9936 13.5843 80.8434 13.0881 80.5616 12.666C80.2798 12.2439 79.8792 11.9149 79.4103 11.7206C78.9415 11.5263 78.4255 11.4754 77.9278 11.5744C77.43 11.6733 76.9728 11.9178 76.6139 12.2767C76.2529 12.6378 76.0076 13.0983 75.9096 13.5995C75.8115 14.1006 75.865 14.6196 76.0633 15.0902C76.3284 15.7168 76.8314 16.2126 77.4618 16.4686C78.0922 16.7246 78.7984 16.7199 79.4253 16.4556C79.7302 16.3263 80.0072 16.1393 80.2412 15.9049C80.4796 15.667 80.6687 15.3844 80.7978 15.0733C80.9268 14.7622 80.9933 14.4287 80.9933 14.0919Z" fill="#13132D"/>
</svg>
