<svg width="155" height="53" viewBox="0 0 155 53" fill="none" xmlns="http://www.w3.org/2000/svg">
<path d="M120.906 23.1702V16.8887H126.33C126.731 16.8887 126.85 17.1064 126.831 17.4476V17.947L126.851 34.8812C126.851 35.639 126.706 35.938 125.871 35.8974L120.928 35.8771L120.848 34.4602C120.568 34.3586 120.468 34.5792 120.347 34.6997C117.985 37.1328 113.924 36.5347 111.962 33.7822C109.962 30.9891 110.002 26.4017 112.042 23.6493C114.063 20.9346 117.685 20.518 120.307 22.6912C120.487 22.8102 120.607 22.9089 120.908 23.1702H120.906ZM118.665 26.2217C117.323 26.2217 116.303 27.2989 116.303 28.7767C116.303 30.2546 117.283 31.3318 118.645 31.3318C120.006 31.3318 121.025 30.2546 121.025 28.7985C121.025 27.3424 120.005 26.2261 118.663 26.2261L118.665 26.2217ZM108.996 35.8538H103.065L102.985 34.4747C102.724 34.3542 102.625 34.5952 102.484 34.7142C99.9189 37.0108 96.2127 36.6508 94.1686 33.8955C92.0854 31.1009 92.1246 26.3466 94.2485 23.5941C96.2925 20.9375 99.8986 20.5455 102.465 22.7158L102.988 23.1557V16.8887H108.478C108.879 16.8887 109.001 17.089 108.979 17.4476V34.6983L108.999 35.8567L108.996 35.8538ZM103.166 28.8072C103.166 27.3555 102.124 26.2522 100.8 26.2319C99.4572 26.2319 98.4164 27.3294 98.4164 28.7869C98.4164 30.2444 99.4326 31.3419 100.783 31.3419C102.089 31.3419 103.149 30.2444 103.166 28.8058V28.8072ZM75.4967 35.4851H69.6797V28.3282C69.6594 27.0115 69.07 26.2638 68.0828 26.2841C67.0768 26.3045 66.4656 27.01 66.4468 28.3282L66.4264 34.6184L66.3872 35.4633H60.6501V16.8887H66.4279V23.041C66.9215 23.0018 67.0594 22.6679 67.296 22.4705C68.9132 21.1538 70.7075 20.8199 72.6383 21.5269C74.4921 22.1947 75.4183 23.6696 75.4779 25.5191L75.4982 35.4851H75.4967ZM141.721 35.0888H136.033L135.956 33.894C134.943 34.8042 133.851 35.3167 132.609 35.4503C129.28 35.8103 127.005 33.3641 127.75 30.1762C128.094 28.7158 129.056 27.8433 130.464 27.3686C131.957 26.875 133.469 26.9519 134.998 27.2234L135.917 27.3758C136.013 26.2188 135.515 25.5931 134.349 25.4218C132.8 25.175 131.308 25.567 129.757 26.0853L128.744 22.3297C132.073 21.267 135.344 20.8881 138.616 22.064C140.337 22.6708 141.351 24.018 141.563 25.8385C141.926 28.8871 141.6 31.9473 141.737 35.0772L141.721 35.0888ZM134.968 29.3603C133.8 29.3415 133.112 29.8728 133.073 30.8019C133.035 31.6003 133.513 32.1491 134.278 32.1868C135.291 32.2449 136 31.4087 136.078 30.1762C136.136 29.2282 135.41 29.4939 134.969 29.3603H134.968ZM91.8778 30.1588H83.2779C83.5683 31.506 84.7529 32.2391 86.0739 32.0213C86.8215 31.9023 87.453 31.5452 88.0076 31.0312C88.2573 30.8135 88.4475 30.5754 88.8118 30.8919L91.512 33.1304C89.3344 35.9438 86.5515 36.6363 83.3911 36.0222C80.6329 35.4677 78.6992 33.8229 78.0285 30.9122C77.3578 28.0015 77.8746 25.2854 80.0972 23.2254C82.2995 21.1843 84.9241 20.9273 87.6243 21.8985C90.4203 22.9089 91.5701 25.2665 91.8575 28.1583C91.9156 28.739 91.8764 29.3865 91.8764 30.1588H91.8778ZM83.124 27.4644H86.6662C86.3788 26.0374 85.7661 25.4233 84.7499 25.4828C83.8499 25.5409 83.2982 26.2087 83.124 27.4644ZM59.8183 25.3086L55.7607 27.6139C54.3758 26.1041 53.1883 25.8646 52.1982 26.8387C51.182 27.8331 51.2082 29.8205 52.2563 30.7946C53.2464 31.6889 54.473 31.4101 55.7796 29.9207L59.917 32.287C58.6308 35.2688 55.0682 36.8192 51.4462 36.0237C48.1407 35.2688 45.7062 32.1287 45.7846 28.6896C45.8644 25.1329 48.3396 22.1569 51.7613 21.5153C55.3833 20.8402 58.6278 22.3282 59.8183 25.3115V25.3086ZM154.383 21.3788V27.4179C154.22 27.4571 154.1 27.4963 153.976 27.4963C151.18 27.6734 150.067 28.7738 149.945 31.4885L149.925 35.4807H143.968V21.5922H149.925V23.7756C151.019 22.2615 152.295 21.1596 154.381 21.3759L154.383 21.3788Z" fill="#959AA5"/>
<path d="M10.9919 43.333C12.3188 43.6233 13.1941 43.2531 13.9621 42.099C14.492 41.2904 14.386 40.2553 13.6717 39.274C13.168 38.5975 12.5307 38.0937 11.7221 37.8687C11.4318 37.7889 11.2866 37.6829 11.3113 37.3243C11.7468 33.2668 11.6568 29.1948 11.5101 25.1372C11.5122 24.9864 11.5209 24.8358 11.5363 24.6857C13.6587 24.9108 16.0076 23.5316 16.8147 21.5689C17.1457 20.7734 17.0528 19.9517 16.7349 19.1823C15.8058 16.9278 14.0565 15.6285 11.7221 15.071C11.5628 15.0606 11.4132 14.9908 11.3028 14.8756C11.1924 14.7603 11.1291 14.6079 11.1254 14.4483L9.50679 4.91342C9.40081 4.33274 9.21645 3.75931 8.9232 3.24395L8.25977 1.94467C8.1146 1.5861 7.75602 1.17526 7.9941 0.844275C8.27283 0.472636 8.81577 0.578612 9.24258 0.632325C10.4765 0.777496 11.5653 1.33495 12.5844 2.01145L15.1975 3.85513C17.6915 5.71332 20.383 6.04285 23.2748 4.91487L24.7599 4.34435C26.0868 3.81448 27.4528 3.56043 28.8973 3.66785L33.5254 3.93352C35.6202 4.26451 36.6683 5.24586 37.1459 7.34214C37.4363 8.68207 37.5306 10.0612 37.4769 11.4258C37.3579 14.7139 37.8878 17.9367 38.2463 21.1857L39.2945 28.6649C39.4163 30.2349 39.1187 31.809 38.4321 33.2262C38.287 33.5165 38.1128 33.7168 37.8079 33.862C35.1295 35.215 34.5459 38.0792 36.468 40.386C36.9035 40.9304 37.4624 41.3804 38.0213 41.8188C39.653 43.1051 40.344 44.8428 40.2497 46.8708C40.196 48.2107 39.4004 49.0992 38.2202 49.6828C37.0153 50.2634 35.7 50.4667 34.3732 50.5828L31.6149 50.728C30.9384 50.7817 30.3548 50.5828 29.8119 50.2373L28.1424 49.1485C26.8939 48.3138 25.583 48.2731 24.23 48.8045C23.5913 49.0571 22.9569 49.3619 22.4401 49.7858C20.5166 51.3508 18.2737 52.0534 15.8638 52.2915C15.453 52.3307 15.0276 52.4105 14.6154 52.4773C13.2101 52.6762 12.2679 52.1463 11.7119 50.8456C11.3403 49.9571 11.2213 49.0164 11.1414 48.0873C10.9672 46.4963 11.0485 44.9182 11.0354 43.3257L10.9919 43.333ZM18.008 37.3519C16.3632 37.3258 15.2759 38.2142 15.1046 39.7124C14.852 41.8609 16.1934 44.5393 18.1024 45.6005C19.1766 46.1812 20.277 46.3845 21.3252 45.5744C22.5983 44.5931 23.7394 43.4796 23.6987 41.6751C23.6987 41.5691 23.645 41.4632 23.6189 41.3557C23.1021 39.2333 20.5151 37.3926 18.0225 37.349L18.008 37.3519ZM26.9215 13.5758C26.9699 14.4445 27.254 15.2836 27.7432 16.003C29.0701 17.899 31.0052 18.6161 32.7429 15.9769C33.3265 15.1015 33.3003 14.2262 32.7284 13.3638C31.8283 12.0515 30.5406 11.3895 28.9757 11.3489C27.6764 11.3343 26.907 12.1981 26.9201 13.5627L26.9215 13.5758ZM31.3928 48.4895C32.1085 48.504 32.798 48.3443 33.3962 47.9451C34.2323 47.3745 34.2585 46.5398 33.4499 45.9417C32.4017 45.1462 30.3577 45.1578 29.327 45.9678C28.5837 46.5514 28.5721 47.3324 29.327 47.8899C29.9367 48.3254 30.6394 48.4706 31.3957 48.4706L31.3928 48.4895ZM25.3972 35.1221C24.8136 35.1613 24.2562 35.2673 23.7786 35.6258C22.9293 36.2501 22.9293 37.2169 23.764 37.8542C24.6525 38.5307 26.1652 38.5307 27.0667 37.8687C27.9029 37.2445 27.9159 36.2646 27.0812 35.6404C26.5775 35.2687 25.9924 35.1497 25.3972 35.1235V35.1221ZM33.8055 8.68062C33.1421 8.6661 32.5324 8.82579 32.0156 9.25114C31.3768 9.78101 31.3652 10.5243 31.9764 11.0803C32.8764 11.902 34.7637 11.902 35.6492 11.0803C36.2328 10.5359 36.2328 9.82021 35.6492 9.29033C35.1193 8.81127 34.482 8.6661 33.8055 8.68062ZM27.3599 41.7506C28.1148 41.7651 28.7245 41.3151 28.7391 40.717C28.7536 40.1334 28.1555 39.6282 27.4122 39.6166C26.6834 39.6021 26.0592 40.0811 26.0331 40.6647C26.0186 41.2744 26.6036 41.739 27.3599 41.7535V41.7506ZM25.6759 28.8217C24.9603 28.8217 24.4159 29.3123 24.4275 29.9104C24.442 30.4679 24.998 30.9441 25.6614 30.9586C26.351 30.9731 26.9215 30.4795 26.9215 29.8843C26.936 29.2746 26.3916 28.8246 25.673 28.8246L25.6759 28.8217ZM36.1283 7.23471C35.8495 7.31455 35.4648 7.37988 35.504 7.85895C35.5432 8.26978 35.8887 8.38882 36.2328 8.37575C36.6044 8.37575 36.9761 8.23058 36.9616 7.79217C36.9354 7.36827 36.5769 7.26229 36.1254 7.23471H36.1283ZM9.85229 47.9175L8.2438 42.144L3.05103 22.4341C2.95957 22.0756 2.9465 21.7576 3.07716 21.4121C3.63461 19.7935 3.37621 18.3592 2.03918 17.2312C1.83159 17.057 1.77787 16.8465 1.72852 16.607L0.976529 12.2954C0.860392 11.3271 1.44398 10.5707 1.70239 9.72004C1.76771 9.49502 2.00144 9.61406 2.15677 9.62713C3.63752 9.72004 4.73791 8.98838 5.14149 7.53086C5.4899 6.25625 5.75121 4.97004 4.64791 3.88126C4.53177 3.76222 4.47951 3.64172 4.58258 3.47042C5.2315 2.46148 5.91816 1.48158 6.87919 0.57716C7.41052 2.31631 8.02023 3.90884 8.28009 5.62041L9.66793 13.9155C9.75939 14.4062 9.72019 14.6849 9.15983 14.8591C8.01878 15.2307 7.5252 16.2121 7.396 17.327C7.13469 19.7949 7.85038 21.9725 9.71874 23.6173C9.9394 23.8162 10.0294 24.002 10.0425 24.2938L9.8973 36.8888C9.8581 37.2474 9.79277 37.5276 9.49517 37.8034C8.80706 38.4538 8.84626 39.3422 8.92465 40.219C8.95274 40.4821 9.01371 40.7406 9.10611 40.9885C9.91036 43.2314 9.5605 45.6049 10.0149 47.8899C9.93649 47.8899 9.87262 47.9044 9.79423 47.9044L9.85229 47.9175Z" fill="#959AA5"/>
</svg>
