<svg width="64" height="49" viewBox="0 0 64 49" fill="none" xmlns="http://www.w3.org/2000/svg">
<path d="M27.8878 36.9612L28.5844 36.6424L28.6671 36.1584L26.9551 34.7888L27.5808 34.222L27.0259 31.8961L27.7343 31.9669L28.2066 30.9279L31.241 14.6934L32.2446 9.46289H33.26L32.5516 12.0368L35.9874 31.2467L36.2944 32.0495H37.2271L36.9201 33.0177L36.9674 34.0921L37.1563 34.7061L36.1409 35.6743L35.5151 36.1584L36.0582 36.9612" fill="#F4F5F8"/>
<path fill-rule="evenodd" clip-rule="evenodd" d="M61.1954 24.9299C59.9321 23.5249 58.2201 22.6984 56.3664 22.6157C55.4454 22.5803 54.5363 22.722 53.6862 23.0408L54.6072 22.3914C57.9013 20.0536 58.8695 15.3899 56.756 11.9895C55.7406 10.3601 54.1703 9.25029 52.352 8.87247C50.4629 8.48284 48.5266 8.89608 46.8972 10.0532C46.3777 10.4192 45.9173 10.856 45.4922 11.3401C46.8618 7.50287 45.2206 3.11069 41.714 1.41049C40.793 0.973634 39.8131 0.737496 38.8331 0.737496V2.02445C39.636 2.03626 40.427 2.21336 41.1827 2.57938C43.4142 3.642 44.7248 6.05061 44.7248 8.55368C44.7248 9.41559 44.5595 10.3129 44.2171 11.163C44.2171 11.163 41.1 18.9084 38.8213 24.5521V36.9493L55.7642 36.9612C57.6061 37.032 59.3772 36.3708 60.7468 35.072C62.1282 33.7733 62.9192 32.0022 63.0019 30.1013V29.5228C62.9665 27.8226 62.3289 26.205 61.1954 24.9299ZM38.8331 0.737496C37.983 0.725689 37.1329 0.890986 36.3182 1.22158C34.4881 1.95361 33.0359 3.42947 32.2684 5.38943L32.1386 5.76725L31.9969 5.38943C31.2058 3.42947 29.7772 1.95361 27.9235 1.22158C26.1761 0.513164 24.2633 0.584006 22.5395 1.41049C19.0329 3.11069 17.3917 7.50287 18.7613 11.3401C18.3363 10.856 17.8758 10.4074 17.3681 10.0532C15.7387 8.89608 13.8024 8.48284 11.9133 8.87247C10.0714 9.25029 8.5129 10.3601 7.50931 11.9895C5.39587 15.3899 6.36404 20.0536 9.65817 22.3914C9.65817 22.3914 9.98877 22.6275 10.5791 23.0526C9.7054 22.722 8.80808 22.5803 7.88714 22.6157C4.15615 22.7692 1.22803 25.9689 1.22803 29.7825L1.23983 30.1013C1.40513 34.0566 4.66384 37.1383 8.5011 36.9612L28.4312 36.9493C28.7146 36.9493 28.9507 36.7722 29.0333 36.5007C29.116 36.2409 29.0215 35.934 28.7972 35.7805L27.345 34.7414L27.6992 34.5998C27.9117 34.4227 27.9943 34.1157 27.8999 33.8677L27.3686 32.4627L27.829 32.6044C28.1006 32.569 28.3367 32.3683 28.384 32.0849L31.9378 12.8042C32.2802 11.1512 32.4455 10.2185 32.5282 9.67534H33.0359C32.6108 10.2303 32.2921 10.9505 32.2921 11.8006C32.2921 12.0249 32.3275 12.2611 32.3747 12.509L32.3039 12.6861L32.3157 12.816L35.905 32.0849C35.9522 32.3683 36.1765 32.569 36.4481 32.6044C36.637 32.6162 36.7905 32.569 36.9086 32.4627L36.3773 33.8677L36.33 34.1039C36.33 34.2928 36.4009 34.4817 36.5544 34.6116L36.9204 34.7533L35.4681 35.7923C35.2438 35.9458 35.1493 36.2527 35.2202 36.5125C35.3028 36.7959 35.5508 36.9612 35.8223 36.9612H38.8213V24.5639C37.8885 26.8662 37.1093 28.8026 36.7433 29.7471C36.1175 26.4176 33.5908 12.875 33.5672 12.6861L33.6144 12.5208L33.5908 12.3673C33.5554 12.1784 33.52 11.9895 33.52 11.8124C33.52 10.3483 34.9958 9.62811 35.0785 9.6045C35.3028 9.48643 35.4445 9.25029 35.4445 9.01415L35.4327 8.87247C35.3619 8.5773 35.1021 8.36477 34.8069 8.37658C34.8069 8.37658 33.6499 8.40019 32.9296 8.40019C32.9651 7.49106 33.1303 6.55831 33.4137 5.88532C34.0631 4.26777 35.2556 3.05165 36.7787 2.43769C37.4399 2.16613 38.1365 2.03626 38.8331 2.04806V0.737496Z" fill="#959AA5"/>
<path fill-rule="evenodd" clip-rule="evenodd" d="M35.8345 36.2952L52.742 24.2049H52.7538C53.8046 23.5437 55.0207 23.1895 56.3431 23.2486C59.8262 23.402 62.5417 26.4482 62.3883 30.0612C62.2466 33.6623 59.283 36.4605 55.7764 36.307L35.8345 36.2952Z" fill="#959AA5"/>
<path fill-rule="evenodd" clip-rule="evenodd" d="M36.9639 34.0879L44.7801 13.7209H44.7919V13.7091C45.2878 12.493 46.126 11.3831 47.2477 10.5803C50.2821 8.4314 54.2964 9.22247 56.2328 12.3159C58.1691 15.4329 57.2836 19.6952 54.261 21.8441L36.9639 34.0879Z" fill="#959AA5"/>
<path fill-rule="evenodd" clip-rule="evenodd" d="M32.9362 12.6819L36.5137 31.9626L44.8021 11.4067C46.2544 7.7938 44.7431 3.57873 41.449 1.9966C38.1312 0.402663 34.2822 2.02021 32.8417 5.60952C32.4285 6.62491 32.2632 7.99452 32.2986 9.04533L32.2986 9.43496C32.2986 9.43496 32.4403 10.108 33.007 12.5048" fill="#959AA5"/>
<path fill-rule="evenodd" clip-rule="evenodd" d="M28.405 36.2971L11.4975 24.2186H11.4857C10.4585 23.5574 9.21878 23.2032 7.90821 23.2622C4.41336 23.4157 1.70957 26.4619 1.83945 30.0748C1.99294 33.6759 4.95648 36.4742 8.43952 36.3207L28.405 36.2971Z" fill="#959AA5"/>
<path fill-rule="evenodd" clip-rule="evenodd" d="M27.2832 34.0872L19.4788 13.7203V13.7084C18.9829 12.4923 18.1564 11.3825 17.0229 10.5796C13.9768 8.43075 9.9624 9.22181 8.02607 12.327C6.08973 15.4441 6.96344 19.7064 9.99782 21.8552L27.2832 34.0872Z" fill="#959AA5"/>
<path fill-rule="evenodd" clip-rule="evenodd" d="M31.3156 12.6819L27.7381 31.9626L19.4378 11.4067C17.9855 7.7938 19.4968 3.57873 22.7909 1.9966C26.1087 0.402663 29.9578 2.02021 31.41 5.60952C31.8114 6.62491 31.9885 7.99452 31.9531 9.04533C31.9531 9.04533 32.0004 9.35231 31.3156 12.6819Z" fill="#959AA5"/>
<path fill-rule="evenodd" clip-rule="evenodd" d="M8.6669 41.1632H8.51341C6.74237 41.1632 5.72697 42.4737 5.72697 43.7253C5.72697 44.9532 6.71875 46.2047 8.6669 46.2047C9.64687 46.2047 11.0401 45.9095 11.3707 44.717H16.4004C16.2351 46.7242 13 48.448 8.844 48.448H8.51341C3.44823 48.3418 0.638184 46.6888 0.638184 43.8197C0.638184 40.3721 4.12123 38.9316 8.34811 38.9316C14.8773 38.9316 16.0108 41.2104 16.1879 42.4029H11.3707C10.5796 41.2576 9.24544 41.1632 8.6669 41.1632Z" fill="#959AA5"/>
<path fill-rule="evenodd" clip-rule="evenodd" d="M22.7037 39.2266L27.7571 44.2563V39.2266H32.1729V48.2589H25.9506L21.0507 43.0166V48.2589H16.8711V39.2266" fill="#959AA5"/>
<path fill-rule="evenodd" clip-rule="evenodd" d="M39.6836 40.9624H39.9788C40.9823 40.9624 41.5491 41.3284 41.5491 41.6472C41.5491 41.9778 40.9587 42.3556 39.8135 42.3556H39.6836V44.41H40.4864C41.4428 44.41 41.9623 44.8705 41.9623 45.2365C41.9623 45.5671 41.5018 45.9213 40.4864 45.9213H39.6836V48.2472H41.1476C45.0321 48.2472 47.1928 46.7123 47.1928 45.4608C47.1928 44.5281 46.508 43.6071 44.7133 43.2765C45.9058 42.9813 46.5788 42.2611 46.5788 41.5645C46.5788 40.3248 45.5398 39.2031 40.0142 39.2149H39.6836V40.9624ZM37.8063 40.9624H39.6836V39.2267H33.2134V48.259H39.6836V45.9331H37.6528V44.4218H39.6836V42.3674H37.8063V40.9624Z" fill="#959AA5"/>
<path fill-rule="evenodd" clip-rule="evenodd" d="M55.5404 41.1632H55.3751C53.5923 41.1632 52.5769 42.4737 52.5769 43.7253C52.5769 44.9532 53.5805 46.2047 55.5404 46.2047C56.5086 46.2047 57.9018 45.9095 58.2324 44.717H63.2622C63.0969 46.7242 59.8618 48.448 55.7057 48.448H55.3869C50.3218 48.3418 47.5117 46.6888 47.5117 43.8197C47.5117 40.3721 50.9948 38.9316 55.2098 38.9316C61.7391 38.9316 62.8961 41.2104 63.0614 42.4029H58.2442C57.583 41.1986 56.0954 41.1632 55.5404 41.1632Z" fill="#959AA5"/>
</svg>
