<svg width="24" height="24" viewBox="0 0 24 24" fill="none" xmlns="http://www.w3.org/2000/svg">
<path d="M1.14637 20.9193C0.560585 21.5051 0.560585 22.4549 1.14637 23.0406C1.73216 23.6264 2.6819 23.6264 3.26769 23.0406L1.14637 20.9193ZM13.2677 13.0406C13.8535 12.4549 13.8535 11.5051 13.2677 10.9193C12.6819 10.3335 11.7322 10.3335 11.1464 10.9193L13.2677 13.0406ZM11.1464 10.9193C10.5606 11.5051 10.5606 12.4549 11.1464 13.0406C11.7322 13.6264 12.6819 13.6264 13.2677 13.0406L11.1464 10.9193ZM23.2677 3.04064C23.8535 2.45485 23.8535 1.50511 23.2677 0.91932C22.6819 0.333534 21.7322 0.333534 21.1464 0.91932L23.2677 3.04064ZM13.2677 10.9193C12.6819 10.3335 11.7322 10.3335 11.1464 10.9193C10.5606 11.5051 10.5606 12.4549 11.1464 13.0406L13.2677 10.9193ZM21.1464 23.0406C21.7322 23.6264 22.6819 23.6264 23.2677 23.0406C23.8535 22.4549 23.8535 21.5051 23.2677 20.9193L21.1464 23.0406ZM11.1464 13.0406C11.7322 13.6264 12.6819 13.6264 13.2677 13.0406C13.8535 12.4549 13.8535 11.5051 13.2677 10.9193L11.1464 13.0406ZM3.26769 0.91932C2.6819 0.333534 1.73216 0.333534 1.14637 0.91932C0.560585 1.50511 0.560585 2.45485 1.14637 3.04064L3.26769 0.91932ZM3.26769 23.0406L13.2677 13.0406L11.1464 10.9193L1.14637 20.9193L3.26769 23.0406ZM13.2677 13.0406L23.2677 3.04064L21.1464 0.91932L11.1464 10.9193L13.2677 13.0406ZM11.1464 13.0406L21.1464 23.0406L23.2677 20.9193L13.2677 10.9193L11.1464 13.0406ZM13.2677 10.9193L3.26769 0.91932L1.14637 3.04064L11.1464 13.0406L13.2677 10.9193Z" fill="#383C43"/>
</svg>
