<svg width="180" height="181" viewBox="0 0 180 181" fill="none" xmlns="http://www.w3.org/2000/svg">
<g clip-path="url(#clip0_1_859)">
<rect y="0.962891" width="180" height="180" rx="90" fill="#17C95F"/>
<path d="M116.31 52.9556H63.6277C57.989 52.9556 53.418 57.5266 53.418 63.1653V115.847C53.418 121.486 57.989 126.057 63.6277 126.057H116.31C121.948 126.057 126.52 121.486 126.52 115.847V63.1653C126.52 57.5266 121.948 52.9556 116.31 52.9556Z" fill="#17C95F"/>
<path d="M99.6189 97.4922L116.067 88.0255L113.472 83.5481L97.1152 92.9964L106.417 76.7131L101.94 74.118L92.4915 90.5658V72.6194H87.3927V90.4196L77.926 73.9718L73.5216 76.7131L82.97 93.1609L66.5404 83.5481L63.9453 88.0255L80.3932 97.4922H61.4233V102.664H83.829C83.5395 101.706 83.4782 100.693 83.6502 99.707C83.8222 98.7208 84.2226 97.7885 84.8193 96.9848C85.4161 96.1811 86.1927 95.5282 87.087 95.0784C87.9813 94.6286 88.9684 94.3943 89.9695 94.3943C90.9706 94.3943 91.9577 94.6286 92.852 95.0784C93.7463 95.5282 94.5229 96.1811 95.1197 96.9848C95.7164 97.7885 96.1168 98.7208 96.2888 99.707C96.4608 100.693 96.3995 101.706 96.11 102.664H118.534V97.4922H99.6189Z" fill="white"/>
<path d="M163.702 123.922C163.214 125.009 162.421 125.735 161.325 126.101C160.232 126.478 159.128 126.415 158.01 125.913C156.893 125.411 156.109 124.624 155.659 123.554C155.212 122.494 155.233 121.421 155.722 120.334L157.121 117.222L165.102 120.81L163.702 123.922ZM156.725 120.785C156.36 121.598 156.346 122.391 156.683 123.165C157.021 123.938 157.615 124.516 158.467 124.898C159.318 125.281 160.145 125.342 160.947 125.082C161.75 124.821 162.334 124.284 162.699 123.471L163.622 121.419L157.648 118.733L156.725 120.785Z" fill="white"/>
<path d="M151.63 129.711C151.408 128.837 151.529 128.005 151.992 127.214C152.455 126.423 153.122 125.911 153.993 125.677C154.86 125.451 155.692 125.572 156.49 126.039C157.289 126.507 157.801 127.174 158.027 128.04C158.249 128.914 158.129 129.746 157.665 130.537C157.202 131.328 156.535 131.841 155.664 132.074C154.793 132.308 153.959 132.191 153.161 131.723C152.363 131.256 151.852 130.585 151.63 129.711ZM152.909 127.751C152.593 128.29 152.511 128.851 152.663 129.432C152.815 130.014 153.164 130.465 153.71 130.785C154.257 131.105 154.821 131.189 155.402 131.037C155.984 130.885 156.433 130.54 156.749 130C157.06 129.468 157.14 128.911 156.988 128.33C156.836 127.748 156.487 127.298 155.941 126.977C155.394 126.657 154.83 126.573 154.249 126.725C153.667 126.877 153.221 127.219 152.909 127.751Z" fill="white"/>
<path d="M150.589 140.536L149.906 141.446L146.069 136.146L146.736 135.256L151.314 136.861L148.491 132.916L149.159 132.026L155.321 134.226L154.639 135.136L150.014 133.386L152.929 137.416L152.299 138.256L147.604 136.578L150.589 140.536Z" fill="white"/>
<path d="M146.754 145.009C146.25 145.542 145.677 145.809 145.035 145.81C144.398 145.817 143.792 145.549 143.216 145.006L140.425 142.372L141.172 141.581L143.917 144.172C144.287 144.52 144.666 144.689 145.055 144.678C145.45 144.672 145.813 144.494 146.145 144.142C146.517 143.748 146.693 143.313 146.673 142.836C146.659 142.365 146.398 141.889 145.888 141.408L143.479 139.135L144.225 138.344L148.771 142.633L148.025 143.424L147.37 142.807C147.583 143.614 147.377 144.348 146.754 145.009Z" fill="white"/>
<path d="M139.277 143.397L145.491 150.08L144.695 150.82L138.481 144.138L139.277 143.397Z" fill="white"/>
<path d="M133.777 149.112C133.877 148.216 134.284 147.48 134.997 146.903C135.71 146.327 136.515 146.083 137.412 146.172C138.303 146.267 139.039 146.673 139.62 147.393C140.202 148.112 140.446 148.917 140.351 149.808C140.251 150.704 139.844 151.44 139.131 152.016C138.418 152.592 137.613 152.836 136.716 152.747C135.819 152.658 135.08 152.254 134.498 151.535C133.916 150.815 133.676 150.008 133.777 149.112ZM135.665 147.73C135.179 148.123 134.904 148.618 134.841 149.216C134.778 149.813 134.945 150.358 135.344 150.851C135.742 151.343 136.24 151.621 136.838 151.684C137.435 151.748 137.977 151.583 138.463 151.19C138.943 150.802 139.214 150.309 139.277 149.712C139.341 149.114 139.173 148.569 138.775 148.076C138.377 147.584 137.879 147.306 137.281 147.243C136.683 147.18 136.145 147.342 135.665 147.73Z" fill="white"/>
<path d="M130.926 157.641L130.015 158.235L126.602 152.999L127.513 152.405L128.1 153.305C128.104 152.318 128.538 151.543 129.404 150.979C130.137 150.501 130.935 150.359 131.797 150.553C132.664 150.753 133.348 151.238 133.848 152.006C134.349 152.774 134.514 153.591 134.343 154.459C134.177 155.333 133.727 156.009 132.994 156.487C132.129 157.051 131.244 157.135 130.339 156.74L130.926 157.641ZM129.862 151.933C129.331 152.279 129.004 152.746 128.88 153.334C128.761 153.929 128.874 154.492 129.22 155.023C129.566 155.553 130.033 155.881 130.621 156.005C131.214 156.135 131.775 156.028 132.306 155.682C132.829 155.341 133.151 154.873 133.27 154.278C133.394 153.689 133.283 153.13 132.937 152.6C132.592 152.069 132.122 151.738 131.53 151.607C130.941 151.483 130.386 151.592 129.862 151.933Z" fill="white"/>
<path d="M125.195 163.629L124.23 164.13L120.203 156.361L121.169 155.861L121.663 156.815C121.765 155.834 122.274 155.105 123.191 154.629C123.968 154.227 124.776 154.165 125.615 154.443C126.458 154.729 127.09 155.279 127.512 156.093C127.934 156.907 128.017 157.736 127.761 158.583C127.509 159.436 126.994 160.064 126.217 160.467C125.3 160.942 124.411 160.939 123.55 160.455L125.195 163.629ZM123.553 155.625C122.99 155.916 122.618 156.349 122.436 156.921C122.259 157.502 122.315 158.073 122.607 158.635C122.898 159.198 123.33 159.57 123.903 159.751C124.48 159.94 125.05 159.889 125.612 159.598C126.167 159.31 126.533 158.876 126.711 158.296C126.893 157.723 126.838 157.155 126.547 156.593C126.255 156.031 125.821 155.655 125.244 155.466C124.671 155.284 124.107 155.337 123.553 155.625Z" fill="white"/>
<path d="M112.476 164.113C112.036 164.059 111.648 163.9 111.312 163.635C110.969 163.372 110.722 163.02 110.573 162.578C110.35 161.915 110.395 161.279 110.709 160.672C111.023 160.065 111.516 159.648 112.187 159.422L115.764 158.216L118.559 166.508L115.243 167.626C114.595 167.844 113.973 167.812 113.377 167.529C112.78 167.247 112.374 166.786 112.158 166.146C111.911 165.411 112.017 164.734 112.476 164.113ZM114.895 166.595L117.11 165.849L116.256 163.314L114.041 164.06C113.693 164.177 113.443 164.398 113.288 164.723C113.134 165.048 113.116 165.388 113.236 165.743C113.353 166.09 113.576 166.345 113.903 166.508C114.225 166.68 114.556 166.71 114.895 166.595ZM112.535 160.452C112.163 160.578 111.895 160.813 111.731 161.159C111.566 161.505 111.547 161.867 111.675 162.246C111.8 162.617 112.037 162.889 112.385 163.062C112.726 163.237 113.078 163.264 113.441 163.141L115.917 162.307L115.01 159.618L112.535 160.452Z" fill="white"/>
<path d="M108.767 165.8C108.608 166.638 108.072 167.172 107.159 167.401L106.882 166.298C107.405 166.193 107.815 165.944 108.112 165.551C108.409 165.159 108.474 164.632 108.308 163.969L107.503 160.756L108.558 160.491L110.077 166.554L109.023 166.818L108.767 165.8Z" fill="white"/>
<path d="M105.258 168.818C105.462 168.778 105.648 168.815 105.814 168.927C105.98 169.039 106.082 169.193 106.12 169.389C106.159 169.585 106.122 169.767 106.01 169.933C105.899 170.107 105.742 170.214 105.537 170.254C105.341 170.292 105.159 170.251 104.991 170.131C104.825 170.019 104.723 169.865 104.685 169.668C104.647 169.472 104.683 169.291 104.795 169.125C104.907 168.959 105.062 168.856 105.258 168.818ZM104.386 161.462L105.58 167.597L104.513 167.804L103.318 161.67L104.386 161.462Z" fill="white"/>
<path d="M97.6683 168.801L96.6014 168.933L95.8649 162.991C95.7511 162.073 95.9731 161.324 96.5308 160.742C97.0876 160.153 97.8001 159.804 98.6684 159.696C99.3631 159.61 99.9791 159.668 100.516 159.87C101.053 160.064 101.479 160.389 101.796 160.845L100.919 161.496C100.494 160.843 99.7771 160.579 98.7682 160.704C98.1231 160.784 97.6396 161.016 97.3178 161.401C96.9877 161.786 96.859 162.272 96.9318 162.859L97.0409 163.74C97.4843 162.845 98.2104 162.335 99.2193 162.21C100.104 162.101 100.892 162.322 101.582 162.875C102.271 163.427 102.672 164.155 102.784 165.056C102.896 165.957 102.684 166.756 102.149 167.452C101.615 168.157 100.905 168.564 100.02 168.673C99.0032 168.799 98.1751 168.486 97.536 167.734L97.6683 168.801ZM100.877 163.693C100.403 163.323 99.8514 163.177 99.2229 163.255C98.5944 163.333 98.0954 163.609 97.7259 164.083C97.3564 164.557 97.2106 165.109 97.2885 165.737C97.3654 166.357 97.6408 166.852 98.1149 167.222C98.5889 167.591 99.1402 167.737 99.7687 167.659C100.397 167.581 100.896 167.305 101.266 166.831C101.635 166.357 101.782 165.81 101.705 165.19C101.627 164.561 101.351 164.062 100.877 163.693Z" fill="white"/>
<path d="M91.4802 169.294C90.7472 169.314 90.1536 169.096 89.6995 168.642C89.2456 168.196 89.0079 167.577 88.9865 166.785L88.8829 162.949L89.97 162.92L90.072 166.694C90.0857 167.202 90.2337 167.59 90.516 167.857C90.7986 168.133 91.1815 168.264 91.6646 168.251C92.2061 168.237 92.6388 168.054 92.9628 167.703C93.287 167.361 93.4396 166.84 93.4207 166.14L93.3312 162.829L94.4184 162.8L94.6547 171.547L93.5676 171.576L93.4758 168.177C93.0534 168.897 92.3882 169.27 91.4802 169.294Z" fill="white"/>
<path d="M83.4004 167.839L85.0601 167.935L85.2561 164.553C85.2739 164.245 85.2284 164.021 85.1197 163.881C85.0021 163.749 84.8188 163.672 84.5697 163.649C84.3201 163.635 84.0118 163.625 83.6448 163.621L83.7012 162.647C84.6568 162.577 85.3471 162.693 85.7722 162.993C86.1967 163.301 86.3866 163.842 86.3417 164.616L86.1458 167.998L87.3812 168.069L87.3205 169.117L86.085 169.046L86.0026 170.468L84.8981 170.73L84.9994 168.983L83.3396 168.887L83.4004 167.839Z" fill="white"/>
<path d="M74.4312 161.057C74.651 161.105 74.8213 161.223 74.9422 161.412C75.0631 161.6 75.0995 161.804 75.0514 162.024C75.0034 162.244 74.8851 162.414 74.6966 162.535C74.5081 162.656 74.304 162.692 74.0842 162.644C73.8562 162.594 73.6859 162.476 73.5732 162.289C73.4523 162.101 73.4159 161.897 73.4639 161.677C73.512 161.457 73.6302 161.287 73.8187 161.166C73.9991 161.043 74.2032 161.007 74.4312 161.057Z" fill="white"/>
<path d="M161.143 103.408C161.178 103.185 161.287 103.009 161.468 102.878C161.65 102.746 161.852 102.699 162.074 102.734C162.296 102.77 162.473 102.879 162.604 103.06C162.735 103.242 162.783 103.444 162.747 103.666C162.71 103.896 162.601 104.073 162.421 104.196C162.24 104.327 162.038 104.375 161.816 104.339C161.594 104.303 161.417 104.194 161.286 104.013C161.153 103.84 161.106 103.638 161.143 103.408Z" fill="white"/>
<path d="M58.6672 165.32C57.5697 164.855 56.8257 164.079 56.4354 162.991C56.0342 161.908 56.0721 160.802 56.5493 159.674C57.0265 158.545 57.7953 157.744 58.8555 157.27C59.9048 156.8 60.9783 156.797 62.0758 157.261L65.2187 158.59L61.8101 166.649L58.6672 165.32ZM61.6473 158.274C60.8261 157.927 60.0328 157.93 59.2674 158.285C58.502 158.64 57.9375 159.247 57.574 160.107C57.2104 160.967 57.1678 161.795 57.4462 162.591C57.7247 163.387 58.2745 163.959 59.0957 164.307L61.168 165.183L63.7195 159.15L61.6473 158.274Z" fill="white"/>
<path d="M52.6307 153.387C53.4994 153.146 54.3342 153.248 55.1352 153.694C55.9362 154.14 56.4631 154.795 56.7158 155.661C56.9613 156.522 56.8591 157.357 56.4094 158.165C55.9596 158.973 55.304 159.5 54.4426 159.746C53.574 159.987 52.7391 159.885 51.9381 159.439C51.1371 158.993 50.6103 158.338 50.3575 157.472C50.1048 156.607 50.2033 155.77 50.653 154.962C51.1028 154.154 51.762 153.629 52.6307 153.387ZM54.6186 154.622C54.0724 154.318 53.5103 154.249 52.9323 154.413C52.3543 154.578 51.9113 154.937 51.6033 155.491C51.2954 156.044 51.2238 156.61 51.3885 157.188C51.5532 157.766 51.9086 158.207 52.4548 158.511C52.9936 158.811 53.5521 158.878 54.1301 158.713C54.7081 158.549 55.1511 158.19 55.4591 157.636C55.767 157.083 55.8386 156.517 55.6739 155.939C55.5092 155.361 55.1574 154.922 54.6186 154.622Z" fill="white"/>
<path d="M41.8445 152.641L40.9174 151.982L46.1175 148.01L47.0243 148.655L45.5369 153.272L49.4084 150.349L50.3152 150.994L48.2735 157.211L47.3463 156.552L48.9775 151.883L45.0233 154.901L44.1675 154.292L45.7244 149.556L41.8445 152.641Z" fill="white"/>
<path d="M37.3072 148.919C36.7612 148.43 36.4795 147.864 36.4622 147.222C36.4393 146.586 36.692 145.973 37.2205 145.383L39.7821 142.526L40.5919 143.252L38.0719 146.063C37.7326 146.441 37.5736 146.825 37.5947 147.213C37.6104 147.608 37.7981 147.966 38.158 148.289C38.5613 148.65 39.0011 148.815 39.4774 148.783C39.9481 148.758 40.4171 148.484 40.8843 147.963L43.0955 145.497L43.9053 146.223L39.7332 150.876L38.9235 150.15L39.5242 149.48C38.7226 149.713 37.9835 149.526 37.3072 148.919Z" fill="white"/>
<path d="M38.7005 141.363L32.1551 147.721L31.3974 146.941L37.9428 140.583L38.7005 141.363Z" fill="white"/>
<path d="M32.876 136.002C33.7739 136.084 34.5188 136.474 35.1106 137.174C35.7023 137.874 35.9635 138.674 35.8941 139.573C35.8193 140.465 35.4287 141.21 34.7223 141.807C34.0159 142.404 33.2164 142.666 32.3239 142.591C31.426 142.51 30.6811 142.119 30.0893 141.419C29.4975 140.719 29.2363 139.919 29.3058 139.021C29.3752 138.122 29.7631 137.374 30.4695 136.776C31.1759 136.179 31.9781 135.921 32.876 136.002ZM34.2991 137.86C33.8956 137.383 33.3944 137.119 32.7955 137.069C32.1965 137.019 31.6552 137.198 31.1716 137.607C30.6879 138.016 30.421 138.52 30.3708 139.119C30.3206 139.718 30.4972 140.256 30.9007 140.733C31.2988 141.204 31.7974 141.465 32.3963 141.515C32.9952 141.565 33.5366 141.386 34.0202 140.977C34.5039 140.568 34.7708 140.064 34.821 139.465C34.8712 138.866 34.6972 138.331 34.2991 137.86Z" fill="white"/>
<path d="M24.2726 133.332L23.6589 132.434L28.8185 128.907L29.4322 129.805L28.5448 130.411C29.5315 130.393 30.3165 130.81 30.8996 131.663C31.3934 132.386 31.5529 133.18 31.3781 134.047C31.1964 134.918 30.7272 135.612 29.9704 136.129C29.2137 136.647 28.3999 136.83 27.529 136.678C26.6513 136.531 25.9655 136.096 25.4717 135.374C24.8886 134.521 24.7847 133.638 25.1601 132.725L24.2726 133.332ZM29.9552 132.142C29.5978 131.62 29.1237 131.303 28.533 131.192C27.9355 131.085 27.3753 131.211 26.8524 131.568C26.3296 131.926 26.0127 132.4 25.9016 132.99C25.7838 133.586 25.9035 134.145 26.261 134.668C26.6137 135.184 27.0888 135.495 27.6864 135.601C28.2771 135.712 28.8339 135.589 29.3567 135.232C29.8796 134.874 30.1999 134.398 30.3178 133.802C30.4288 133.212 30.3079 132.658 29.9552 132.142Z" fill="white"/>
<path d="M18.1762 127.772L17.6544 126.817L25.3316 122.619L25.8533 123.573L24.9101 124.089C25.8938 124.169 26.6336 124.662 27.1294 125.568C27.5492 126.336 27.6292 127.142 27.3694 127.987C27.1022 128.836 26.5665 129.481 25.7623 129.92C24.958 130.36 24.1301 130.461 23.2785 130.224C22.4197 129.991 21.7803 129.491 21.3605 128.723C20.8648 127.816 20.8489 126.927 21.3128 126.056L18.1762 127.772ZM26.1421 125.951C25.8383 125.396 25.398 125.033 24.8212 124.864C24.237 124.699 23.6672 124.769 23.1115 125.073C22.5558 125.377 22.1935 125.817 22.0245 126.394C21.8482 126.975 21.912 127.543 22.2158 128.098C22.5157 128.647 22.9577 129.003 23.5418 129.168C24.1186 129.337 24.6848 129.27 25.2405 128.966C25.7962 128.662 26.1622 128.22 26.3385 127.639C26.5074 127.062 26.442 126.5 26.1421 125.951Z" fill="white"/>
<path d="M17.3856 115.04C17.4295 114.598 17.5801 114.207 17.8375 113.865C18.0921 113.516 18.4387 113.262 18.8774 113.103C19.5356 112.864 20.1717 112.895 20.7858 113.196C21.3999 113.496 21.8276 113.979 22.069 114.645L23.3552 118.194L15.1289 121.176L13.9363 117.885C13.7034 117.243 13.7216 116.62 13.9906 116.017C14.2597 115.415 14.7115 114.998 15.3461 114.768C16.0747 114.504 16.7546 114.595 17.3856 115.04ZM14.9587 117.515L15.7552 119.712L18.2701 118.801L17.4736 116.603C17.3487 116.258 17.1222 116.012 16.7941 115.865C16.4661 115.718 16.1258 115.709 15.7732 115.837C15.4285 115.962 15.1787 116.189 15.0238 116.52C14.8583 116.846 14.8366 117.178 14.9587 117.515ZM21.0465 115.016C20.9131 114.647 20.6717 114.385 20.3222 114.228C19.9728 114.071 19.6101 114.06 19.234 114.197C18.8658 114.33 18.5993 114.573 18.4344 114.925C18.2668 115.27 18.2482 115.622 18.3788 115.983L19.269 118.439L21.9367 117.472L21.0465 115.016Z" fill="white"/>
<path d="M15.6573 111.526C14.815 111.386 14.269 110.862 14.0192 109.954L15.116 109.653C15.2333 110.174 15.4915 110.578 15.8904 110.866C16.2894 111.154 16.8183 111.207 17.4772 111.026L20.671 110.147L20.9595 111.196L14.9333 112.853L14.6449 111.805L15.6573 111.526Z" fill="white"/>
<path d="M12.5216 107.953C12.5661 108.157 12.5342 108.343 12.4261 108.511C12.3179 108.68 12.1662 108.786 11.9708 108.828C11.7754 108.871 11.5934 108.838 11.4247 108.73C11.2479 108.624 11.1373 108.469 11.0928 108.265C11.0501 108.07 11.0869 107.887 11.2032 107.717C11.3113 107.548 11.4631 107.442 11.6585 107.4C11.8539 107.357 12.0359 107.39 12.2045 107.498C12.3732 107.606 12.4789 107.758 12.5216 107.953ZM19.8561 106.913L13.7503 108.248L13.5181 107.185L19.6239 105.85L19.8561 106.913Z" fill="white"/>
<path d="M12.3695 100.397L12.2127 99.3339L18.1362 98.4608C19.0513 98.3259 19.8059 98.5306 20.4 99.0747C21.0022 99.6177 21.3672 100.322 21.4948 101.188C21.5969 101.88 21.5531 102.497 21.3634 103.039C21.1819 103.58 20.8669 104.014 20.4181 104.341L19.7478 103.479C20.3905 103.039 20.6377 102.316 20.4895 101.311C20.3947 100.668 20.1515 100.19 19.7601 99.8766C19.3674 99.5555 18.8783 99.438 18.293 99.5243L17.415 99.6537C18.3196 100.076 18.8461 100.791 18.9943 101.796C19.1244 102.678 18.921 103.471 18.3844 104.173C17.8478 104.876 17.1301 105.293 16.2315 105.426C15.3329 105.558 14.5295 105.365 13.8212 104.846C13.1047 104.328 12.6815 103.628 12.5514 102.746C12.402 101.732 12.6958 100.897 13.433 100.241L12.3695 100.397ZM17.5505 103.487C17.909 103.005 18.042 102.451 17.9497 101.824C17.8573 101.197 17.5699 100.705 17.0875 100.346C16.6051 99.9879 16.0506 99.8548 15.424 99.9472C14.8057 100.038 14.3173 100.325 13.9588 100.808C13.6003 101.29 13.4673 101.845 13.5596 102.471C13.652 103.098 13.9394 103.59 14.4218 103.949C14.9042 104.307 15.4546 104.441 16.0729 104.35C16.6995 104.257 17.192 103.97 17.5505 103.487Z" fill="white"/>
<path d="M11.7342 94.2184C11.7003 93.4858 11.9061 92.8881 12.3519 92.4253C12.7893 91.9629 13.4034 91.7134 14.1942 91.6768L18.0276 91.4991L18.0779 92.5854L14.307 92.7602C13.7992 92.7837 13.4143 92.9392 13.1523 93.2266C12.882 93.5145 12.7581 93.8998 12.7804 94.3826C12.8055 94.9237 12.9964 95.3528 13.3531 95.67C13.7015 95.9875 14.2254 96.1301 14.9246 96.0977L18.2336 95.9443L18.2839 97.0307L9.54329 97.4357L9.49295 96.3494L12.8893 96.192C12.1613 95.7836 11.7763 95.1257 11.7342 94.2184Z" fill="white"/>
<path d="M13.0108 86.053L12.9466 87.7143L16.3316 87.845C16.6397 87.8569 16.8626 87.8071 17.0004 87.6957C17.1301 87.5756 17.204 87.3908 17.2219 87.1413C17.2316 86.8915 17.2352 86.5831 17.2326 86.216L18.2069 86.2537C18.2952 87.2078 18.1934 87.9002 17.9015 88.3309C17.6014 88.7613 17.0641 88.9616 16.2897 88.9317L12.9047 88.801L12.8569 90.0376L11.8077 89.997L11.8555 88.7605L10.4315 88.7055L10.1487 87.6062L11.8974 87.6738L11.9616 86.0125L13.0108 86.053Z" fill="white"/>
<path d="M19.5343 77.1831C19.4913 77.404 19.377 77.577 19.1913 77.7021C19.0056 77.8273 18.8024 77.8684 18.5815 77.8254C18.3607 77.7824 18.1877 77.668 18.0625 77.4824C17.9373 77.2967 17.8963 77.0934 17.9393 76.8726C17.9839 76.6435 18.0982 76.4705 18.2823 76.3536C18.468 76.2284 18.6712 76.1873 18.8921 76.2303C19.1129 76.2733 19.2859 76.3877 19.4111 76.5733C19.5378 76.7508 19.5789 76.9541 19.5343 77.1831Z" fill="white"/>
<path d="M14.9331 61.3445C15.3726 60.2368 16.1318 59.4756 17.2108 59.061C18.2851 58.6355 19.3915 58.6487 20.5302 59.1005C21.6688 59.5522 22.4872 60.3028 22.9854 61.3521C23.4788 62.3906 23.5058 63.4637 23.0663 64.5714L21.8078 67.7434L13.6746 64.5164L14.9331 61.3445ZM22.0439 64.1657C22.3727 63.3369 22.3511 62.5439 21.9792 61.7867C21.6072 61.0295 20.9875 60.4787 20.1199 60.1345C19.2524 59.7903 18.4236 59.7663 17.6337 60.0626C16.8438 60.3588 16.2844 60.9213 15.9555 61.7501L15.1258 63.8415L21.2141 66.2571L22.0439 64.1657Z" fill="white"/>
<path d="M26.7474 54.9801C27.008 55.8432 26.9244 56.6801 26.4965 57.4908C26.0687 58.3015 25.4249 58.8428 24.5653 59.1147C23.7096 59.3791 22.8727 59.2955 22.0547 58.8638C21.2366 58.432 20.6953 57.7883 20.4308 56.9326C20.1702 56.0695 20.2538 55.2326 20.6817 54.4219C21.1096 53.6112 21.7533 53.0699 22.6129 52.7981C23.4725 52.5262 24.3114 52.6061 25.1294 53.0379C25.9475 53.4696 26.4868 54.1171 26.7474 54.9801ZM25.5569 56.9949C25.8486 56.4421 25.9057 55.8787 25.7282 55.3044C25.5507 54.7302 25.1819 54.2953 24.6218 53.9997C24.0617 53.704 23.4945 53.645 22.9203 53.8225C22.3461 54 21.9131 54.3651 21.6214 54.9178C21.3335 55.4632 21.2783 56.023 21.4558 56.5972C21.6333 57.1715 22.0021 57.6064 22.5622 57.902C23.1224 58.1976 23.6895 58.2567 24.2638 58.0792C24.838 57.9017 25.269 57.5403 25.5569 56.9949Z" fill="white"/>
<path d="M27.0943 44.408L27.7328 43.4666L31.8177 48.5783L31.1933 49.499L26.5447 48.1133L29.5514 51.9198L28.9269 52.8405L22.6669 50.9357L23.3054 49.9943L28.0083 51.5226L24.9052 47.6356L25.4945 46.7666L30.2639 48.2192L27.0943 44.408Z" fill="white"/>
<path d="M30.7227 39.7226C31.2002 39.166 31.7598 38.872 32.4016 38.8407C33.037 38.8039 33.6552 39.0433 34.256 39.5587L37.1686 42.0574L36.4605 42.8828L33.5954 40.4248C33.2095 40.0938 32.8228 39.9431 32.435 39.9728C32.0409 39.997 31.6865 40.1926 31.3718 40.5594C31.0191 40.9705 30.8639 41.4138 30.9061 41.8893C30.9421 42.3593 31.2257 42.8222 31.757 43.278L34.271 45.4348L33.5629 46.2602L28.8194 42.1907L29.5275 41.3653L30.2106 41.9513C29.9605 41.1549 30.1313 40.412 30.7227 39.7226Z" fill="white"/>
<path d="M38.3256 40.9053L31.8266 34.5L32.59 33.7254L39.089 40.1307L38.3256 40.9053Z" fill="white"/>
<path d="M43.5804 34.9219C43.5188 35.8214 43.1446 36.5746 42.4576 37.1815C41.7706 37.7884 40.977 38.067 40.0768 38.0172C39.1829 37.9619 38.4297 37.5876 37.8172 36.8944C37.2048 36.2012 36.9262 35.4076 36.9815 34.5137C37.0431 33.6142 37.4173 32.861 38.1043 32.2541C38.7913 31.6472 39.5848 31.3686 40.485 31.4184C41.3852 31.4681 42.1416 31.8396 42.754 32.5329C43.3665 33.2261 43.6419 34.0224 43.5804 34.9219ZM41.7541 36.3852C42.2225 35.9714 42.4752 35.4646 42.5124 34.8647C42.5495 34.2648 42.3584 33.7275 41.939 33.2529C41.5197 32.7783 41.0101 32.5224 40.4102 32.4853C39.8103 32.4482 39.2762 32.6365 38.8078 33.0503C38.3456 33.4586 38.096 33.9627 38.0589 34.5626C38.0218 35.1625 38.2129 35.6998 38.6322 36.1744C39.0516 36.649 39.5612 36.9049 40.1611 36.942C40.761 36.9791 41.292 36.7935 41.7541 36.3852Z" fill="white"/>
<path d="M45.809 26.4133L46.6908 25.7768L50.3489 30.8445L49.4671 31.481L48.8379 30.6093C48.8816 31.5953 48.4845 32.3907 47.6466 32.9955C46.9372 33.5076 46.1471 33.6874 45.2764 33.5348C44.4008 33.3754 43.6948 32.9241 43.1583 32.1809C42.6217 31.4376 42.4181 30.6288 42.5475 29.7543C42.6719 28.8731 43.0889 28.1764 43.7983 27.6643C44.6362 27.0595 45.5161 26.9331 46.4382 27.285L45.809 26.4133ZM47.1436 32.0636C47.6571 31.6929 47.9618 31.2109 48.0576 30.6176C48.1486 30.0175 48.0087 29.4607 47.6381 28.9471C47.2674 28.4336 46.7854 28.1289 46.192 28.0331C45.5938 27.9305 45.0379 28.0645 44.5244 28.4352C44.0176 28.801 43.7188 29.284 43.6278 29.8841C43.5319 30.4774 43.6693 31.0309 44.04 31.5444C44.4107 32.0579 44.8952 32.366 45.4934 32.4686C46.0867 32.5644 46.6368 32.4294 47.1436 32.0636Z" fill="white"/>
<path d="M51.5377 19.9704L52.4801 19.4277L56.847 27.0101L55.9046 27.5528L55.3681 26.6213C55.3105 27.6065 54.8339 28.357 53.9385 28.8727C53.1803 29.3094 52.3759 29.4072 51.5255 29.1662C50.6708 28.9179 50.0148 28.3966 49.5573 27.6022C49.0998 26.8079 48.9802 25.9824 49.1985 25.1258C49.4126 24.262 49.8988 23.6118 50.6571 23.1751C51.5525 22.6594 52.4408 22.6238 53.3219 23.0684L51.5377 19.9704ZM53.5336 27.8942C54.0824 27.5781 54.4349 27.1299 54.5911 26.5495C54.7431 25.9619 54.6611 25.3936 54.345 24.8448C54.0289 24.296 53.5807 23.9435 53.0003 23.7873C52.4158 23.6239 51.8491 23.7003 51.3002 24.0164C50.7586 24.3283 50.4118 24.7781 50.2598 25.3657C50.1036 25.9461 50.1836 26.5107 50.4997 27.0595C50.8158 27.6083 51.2661 27.9644 51.8506 28.1278C52.431 28.284 52.992 28.2061 53.5336 27.8942Z" fill="white"/>
<path d="M63.8152 19.0433C64.2576 19.0756 64.6528 19.2159 65.0009 19.4642C65.3568 19.7095 65.62 20.0494 65.7905 20.4838C66.0462 21.1354 66.0319 21.7721 65.7478 22.3939C65.4636 23.0157 64.9918 23.4559 64.3325 23.7147L60.8184 25.0937L57.6219 16.9485L60.88 15.6699C61.5161 15.4203 62.139 15.422 62.7486 15.6752C63.3582 15.9283 63.7863 16.369 64.0329 16.9974C64.316 17.7188 64.2434 18.4008 63.8152 19.0433ZM61.2773 16.6822L59.1014 17.5361L60.0786 20.0263L62.2545 19.1724C62.5958 19.0384 62.8357 18.8055 62.974 18.4737C63.1124 18.1419 63.113 17.8015 62.9761 17.4524C62.8421 17.1111 62.6077 16.8674 62.2729 16.7213C61.9427 16.5643 61.6109 16.5513 61.2773 16.6822ZM63.9352 22.7024C64.2998 22.5593 64.556 22.311 64.7038 21.9576C64.8515 21.6042 64.8524 21.2413 64.7062 20.869C64.5632 20.5044 64.3134 20.2443 63.9569 20.0888C63.6082 19.9302 63.2555 19.9209 62.8986 20.061L60.4667 21.0153L61.5033 23.6567L63.9352 22.7024Z" fill="white"/>
<path d="M67.5095 17.1314C67.6303 16.2862 68.1417 15.7284 69.0437 15.4581L69.3702 16.5477C68.8522 16.6769 68.4538 16.9441 68.1751 17.3495C67.8964 17.7549 67.8551 18.2849 68.0513 18.9395L69.0022 22.1126L67.9604 22.4247L66.1663 16.4378L67.2081 16.1256L67.5095 17.1314Z" fill="white"/>
<path d="M71.2254 13.8493C71.023 13.8985 70.8362 13.8709 70.6651 13.7666C70.494 13.6624 70.3849 13.5131 70.3378 13.3187C70.2906 13.1243 70.3192 12.9416 70.4234 12.7705C70.5257 12.5914 70.6781 12.4772 70.8806 12.4281C71.0749 12.3809 71.2586 12.4135 71.4317 12.5259C71.6027 12.6302 71.7119 12.7795 71.759 12.9738C71.8062 13.1682 71.7776 13.3509 71.6734 13.522C71.5691 13.6931 71.4198 13.8022 71.2254 13.8493ZM72.433 21.1582L70.9592 15.0845L72.016 14.828L73.4898 20.9018L72.433 21.1582Z" fill="white"/>
<path d="M78.6973 13.5352L79.7569 13.354L80.766 19.2559C80.9219 20.1677 80.7347 20.9268 80.2043 21.5331C79.6753 22.1478 78.9796 22.5288 78.1171 22.6763C77.4271 22.7942 76.8091 22.7646 76.2631 22.5875C75.7185 22.4185 75.2774 22.1135 74.9399 21.6724L75.7858 20.9825C76.2405 21.6149 76.969 21.8454 77.9711 21.674C78.6118 21.5645 79.0841 21.3104 79.3879 20.9119C79.6999 20.5119 79.8061 20.0203 79.7064 19.4371L79.5568 18.5623C79.1551 19.4764 78.4532 20.0191 77.4511 20.1905C76.5722 20.3407 75.7754 20.1557 75.0609 19.6354C74.3463 19.115 73.9124 18.4072 73.7593 17.5118C73.6063 16.6165 73.781 15.8088 74.2835 15.0888C74.7846 14.3606 75.4746 13.9214 76.3535 13.7711C77.3638 13.5984 78.2055 13.8729 78.8785 14.5948L78.6973 13.5352ZM75.7272 18.7859C76.2178 19.1332 76.7752 19.2535 77.3995 19.1467C78.0237 19.04 78.5095 18.7413 78.8568 18.2508C79.2041 17.7602 79.3244 17.2028 79.2176 16.5786C79.1123 15.9625 78.8144 15.4808 78.3238 15.1335C77.8333 14.7862 77.2759 14.666 76.6516 14.7727C76.0273 14.8794 75.5415 15.1781 75.1942 15.6686C74.8469 16.1592 74.726 16.7125 74.8313 17.3285C74.938 17.9528 75.2367 18.4386 75.7272 18.7859Z" fill="white"/>
<path d="M84.8037 12.7525C85.5352 12.7016 86.1375 12.8937 86.6105 13.3286C87.0829 13.7551 87.3466 14.3633 87.4015 15.1531L87.6678 18.9813L86.5829 19.0568L86.321 15.2909C86.2857 14.7838 86.1213 14.4026 85.8279 14.1473C85.5339 13.8838 85.1458 13.7687 84.6637 13.8023C84.1233 13.8399 83.6987 14.0406 83.3899 14.4046C83.0805 14.7603 82.9501 15.2872 82.9987 15.9856L83.2285 19.2901L82.1436 19.3655L81.5365 10.6366L82.6214 10.5612L82.8573 13.953C83.2487 13.2157 83.8975 12.8156 84.8037 12.7525Z" fill="white"/>
<path d="M93.037 13.8307L91.3747 13.8051L91.3224 17.1922C91.3176 17.5005 91.3725 17.7222 91.4871 17.8573C91.6102 17.9842 91.7966 18.0538 92.0465 18.066C92.2964 18.0698 92.6049 18.0662 92.9717 18.0552L92.9567 19.0301C92.0049 19.1404 91.3103 19.0547 90.8729 18.7729C90.4357 18.4828 90.223 17.9503 90.235 17.1754L90.2873 13.7883L89.0499 13.7692L89.0662 12.7193L90.3035 12.7384L90.3255 11.3136L91.4179 11.0054L91.3909 12.7552L93.0532 12.7809L93.037 13.8307Z" fill="white"/>
<path d="M101.989 20.122C101.767 20.0841 101.591 19.9737 101.462 19.791C101.333 19.6082 101.287 19.406 101.325 19.1842C101.363 18.9624 101.473 18.7868 101.656 18.6574C101.839 18.5281 102.041 18.4823 102.263 18.5202C102.493 18.5596 102.668 18.6699 102.789 18.8513C102.919 19.034 102.964 19.2363 102.927 19.4581C102.889 19.6798 102.778 19.8554 102.596 19.9848C102.421 20.1156 102.219 20.1613 101.989 20.122Z" fill="white"/>
<path d="M117.93 15.1981C119.047 15.6126 119.825 16.3545 120.264 17.4238C120.713 18.4883 120.725 19.5948 120.299 20.7433C119.873 21.8918 119.141 22.7269 118.103 23.2485C117.076 23.7652 116.004 23.8163 114.887 23.4019L111.687 22.215L114.73 14.0113L117.93 15.1981ZM115.269 22.3705C116.105 22.6806 116.898 22.6412 117.646 22.2523C118.395 21.8634 118.931 21.2315 119.256 20.3564C119.581 19.4813 119.586 18.6523 119.272 17.8692C118.958 17.0861 118.383 16.5395 117.547 16.2294L115.438 15.4469L113.16 21.588L115.269 22.3705Z" fill="white"/>
<path d="M124.144 26.6509C123.288 26.9338 122.449 26.8719 121.628 26.4652C120.806 26.0585 120.249 25.429 119.955 24.5768C119.668 23.7282 119.73 22.8894 120.14 22.0604C120.551 21.2315 121.18 20.6737 122.029 20.3871C122.885 20.1042 123.724 20.1661 124.545 20.5728C125.367 20.9795 125.924 21.609 126.218 22.4612C126.513 23.3135 126.454 24.1541 126.044 24.9831C125.634 25.8121 125 26.368 124.144 26.6509ZM122.099 25.513C122.659 25.7903 123.224 25.8328 123.794 25.6405C124.363 25.4482 124.788 25.0682 125.069 24.5006C125.35 23.933 125.395 23.3645 125.202 22.7951C125.01 22.2256 124.634 21.8023 124.074 21.525C123.521 21.2514 122.96 21.2107 122.391 21.4031C121.821 21.5954 121.396 21.9753 121.115 22.5429C120.834 23.1105 120.79 23.679 120.982 24.2485C121.174 24.8179 121.547 25.2394 122.099 25.513Z" fill="white"/>
<path d="M135.15 26.9845L136.105 27.6021L131.084 31.7984L130.15 31.1944L131.433 26.5164L127.694 29.6061L126.76 29.002L128.526 22.7016L129.482 23.3193L128.057 28.0546L131.875 24.8668L132.757 25.4369L131.409 30.2371L135.15 26.9845Z" fill="white"/>
<path d="M139.95 30.5363C140.516 31.0015 140.822 31.5546 140.868 32.1956C140.918 32.83 140.693 33.4533 140.19 34.0652L137.756 37.0316L136.915 36.3417L139.31 33.4236C139.633 33.0307 139.775 32.6407 139.737 32.2537C139.704 31.8602 139.501 31.5101 139.127 31.2035C138.708 30.8599 138.262 30.7144 137.787 30.767C137.318 30.8132 136.862 31.1069 136.418 31.648L134.316 34.2086L133.475 33.5186L137.44 28.6874L138.281 29.3773L137.71 30.073C138.501 29.8056 139.247 29.9601 139.95 30.5363Z" fill="white"/>
<path d="M138.945 38.1775L145.208 31.5404L145.999 32.2867L139.736 38.9238L138.945 38.1775Z" fill="white"/>
<path d="M145.047 43.3096C144.147 43.2676 143.386 42.9099 142.764 42.2363C142.142 41.5628 141.846 40.7755 141.876 39.8744C141.912 38.9794 142.27 38.2182 142.95 37.5908C143.629 36.9634 144.417 36.6676 145.312 36.7034C146.212 36.7453 146.973 37.103 147.595 37.7766C148.217 38.4502 148.513 39.2375 148.482 40.1386C148.452 41.0396 148.097 41.8039 147.418 42.4313C146.738 43.0587 145.948 43.3515 145.047 43.3096ZM143.544 41.5157C143.968 41.9749 144.481 42.2165 145.081 42.2406C145.682 42.2646 146.215 42.0618 146.68 41.6322C147.145 41.2026 147.39 40.6876 147.414 40.087C147.438 39.4864 147.238 38.9565 146.814 38.4973C146.396 38.0442 145.887 37.8056 145.286 37.7816C144.686 37.7576 144.153 37.9603 143.687 38.3899C143.222 38.8195 142.977 39.3346 142.953 39.9351C142.929 40.5357 143.126 41.0625 143.544 41.5157Z" fill="white"/>
<path d="M153.619 45.3792L154.275 46.2468L149.289 50.015L148.633 49.1474L149.491 48.4992C148.506 48.5645 147.702 48.1849 147.079 47.3605C146.551 46.6624 146.354 45.8765 146.488 45.0027C146.628 44.1238 147.064 43.4081 147.795 42.8554C148.526 42.3027 149.331 42.0815 150.208 42.1916C151.091 42.2967 151.797 42.6983 152.325 43.3964C152.948 44.2208 153.093 45.0978 152.762 46.0273L153.619 45.3792ZM148 46.8372C148.381 47.3424 148.87 47.6365 149.465 47.7193C150.067 47.7971 150.621 47.6451 151.126 47.2633C151.631 46.8814 151.926 46.3929 152.008 45.7976C152.098 45.1972 151.952 44.6444 151.57 44.1391C151.193 43.6405 150.704 43.3523 150.102 43.2745C149.506 43.1917 148.956 43.3412 148.451 43.723C147.945 44.1048 147.648 44.5959 147.559 45.1963C147.476 45.7916 147.623 46.3385 148 46.8372Z" fill="white"/>
<path d="M160.156 50.9324L160.719 51.8625L153.235 56.3959L152.672 55.4657L153.591 54.9087C152.605 54.8729 151.844 54.413 151.309 53.5292C150.855 52.7808 150.74 51.9788 150.962 51.1232C151.191 50.2633 151.698 49.5959 152.482 49.121C153.266 48.6461 154.089 48.5083 154.95 48.7076C155.818 48.9026 156.479 49.3743 156.932 50.1227C157.468 51.0065 157.523 51.8938 157.098 52.7846L160.156 50.9324ZM152.278 53.1028C152.606 53.6445 153.062 53.987 153.646 54.1303C154.236 54.2693 154.803 54.1748 155.344 53.8466C155.886 53.5185 156.229 53.0626 156.372 52.4789C156.522 51.8909 156.434 51.326 156.105 50.7843C155.782 50.2497 155.324 49.9129 154.733 49.7739C154.15 49.6306 153.587 49.723 153.045 50.0511C152.504 50.3793 152.158 50.8373 152.007 51.4254C151.864 52.0091 151.954 52.5682 152.278 53.1028Z" fill="white"/>
<path d="M161.387 63.2758C161.365 63.7188 161.233 64.1171 160.993 64.4707C160.756 64.8319 160.422 65.1027 159.991 65.2829C159.346 65.5531 158.709 65.5532 158.081 65.2831C157.453 65.0129 157.002 64.5512 156.729 63.8978L155.271 60.4155L163.342 57.037L164.694 60.2656C164.958 60.896 164.97 61.5187 164.731 62.1338C164.491 62.749 164.06 63.1869 163.437 63.4475C162.723 63.7467 162.039 63.6895 161.387 63.2758ZM163.691 60.6855L162.788 58.5293L160.321 59.5621L161.223 61.7184C161.365 62.0566 161.603 62.2911 161.938 62.422C162.273 62.5529 162.613 62.5459 162.959 62.4011C163.297 62.2596 163.535 62.0198 163.674 61.6817C163.823 61.3481 163.829 61.0161 163.691 60.6855ZM157.732 63.4779C157.883 63.8392 158.137 64.0897 158.494 64.2295C158.85 64.3693 159.213 64.362 159.582 64.2076C159.943 64.0563 160.198 63.8008 160.345 63.4409C160.496 63.0888 160.497 62.7359 160.349 62.3823L159.34 59.9724L156.723 61.068L157.732 63.4779Z" fill="white"/>
<path d="M163.362 66.9116C164.21 67.0132 164.779 67.5119 165.07 68.4075L163.988 68.7587C163.847 68.2437 163.571 67.8515 163.16 67.582C162.748 67.3126 162.217 67.2833 161.567 67.4943L158.416 68.5168L158.081 67.4824L164.026 65.5531L164.361 66.5875L163.362 66.9116Z" fill="white"/>
<path d="M166.685 70.4243C166.631 70.223 166.655 70.0357 166.755 69.8622C166.855 69.6888 167.002 69.5763 167.195 69.5248C167.389 69.4732 167.572 69.4976 167.745 69.5979C167.927 69.6961 168.044 69.8458 168.098 70.0471C168.15 70.2403 168.121 70.4247 168.013 70.6003C167.913 70.7737 167.766 70.8862 167.573 70.9378C167.379 70.9894 167.196 70.965 167.023 70.8646C166.849 70.7643 166.737 70.6175 166.685 70.4243ZM159.406 71.7981L165.444 70.1862L165.725 71.237L159.686 72.8488L159.406 71.7981Z" fill="white"/>
<path d="M167.174 77.9136L167.379 78.9688L161.502 80.1131C160.594 80.2898 159.831 80.1201 159.213 79.6037C158.586 79.089 158.189 78.4022 158.022 77.5433C157.888 76.8562 157.904 76.2377 158.068 75.6878C158.225 75.1394 158.519 74.6915 158.953 74.344L159.662 75.1737C159.04 75.6429 158.826 76.3764 159.021 77.3743C159.145 78.0124 159.41 78.4787 159.815 78.7733C160.222 79.0761 160.716 79.1709 161.297 79.0579L162.168 78.8883C161.245 78.5077 160.686 77.8184 160.492 76.8205C160.321 75.9452 160.488 75.1444 160.992 74.4181C161.496 73.6918 162.193 73.2418 163.085 73.0682C163.977 72.8946 164.788 73.0508 165.519 73.5366C166.259 74.0209 166.714 74.7006 166.884 75.5758C167.08 76.582 166.825 77.4297 166.119 78.119L167.174 77.9136ZM161.856 75.0648C161.521 75.5632 161.413 76.1232 161.534 76.7449C161.655 77.3665 161.965 77.8453 162.463 78.1813C162.962 78.5172 163.522 78.6247 164.143 78.5036C164.757 78.3842 165.232 78.0753 165.567 77.5769C165.903 77.0785 166.011 76.5185 165.89 75.8968C165.769 75.2752 165.459 74.7964 164.961 74.4604C164.462 74.1245 163.906 74.0162 163.293 74.1357C162.671 74.2567 162.192 74.5664 161.856 75.0648Z" fill="white"/>
<path d="M168.089 84.0033C168.156 84.7335 167.978 85.34 167.555 85.823C167.139 86.3051 166.537 86.5827 165.749 86.6559L161.928 87.0106L161.827 85.9277L165.586 85.5788C166.092 85.5318 166.47 85.3587 166.718 85.0595C166.975 84.7595 167.081 84.3689 167.036 83.8876C166.986 83.3482 166.775 82.9284 166.404 82.6281C166.042 82.327 165.512 82.2088 164.815 82.2735L161.516 82.5796L161.416 81.4967L170.129 80.6881L170.229 81.7709L166.844 82.0852C167.59 82.4595 168.005 83.0989 168.089 84.0033Z" fill="white"/>
<path d="M167.194 91.8932L167.175 90.2308L163.787 90.27C163.479 90.2736 163.259 90.3345 163.127 90.4527C163.003 90.5791 162.939 90.7674 162.934 91.0174C162.936 91.2674 162.948 91.5756 162.969 91.9421L161.994 91.9534C161.858 91.0049 161.925 90.3082 162.195 89.8634C162.473 89.4185 163 89.1916 163.775 89.1826L167.162 89.1434L167.148 87.9059L168.198 87.8938L168.212 89.1312L169.637 89.1147L169.975 90.1984L168.225 90.2186L168.244 91.881L167.194 91.8932Z" fill="white"/>
</g>
<defs>
<clipPath id="clip0_1_859">
<rect y="0.962891" width="180" height="180" rx="90" fill="white"/>
</clipPath>
</defs>
</svg>
