<svg width="154" height="36" viewBox="0 0 154 36" fill="none" xmlns="http://www.w3.org/2000/svg">
<path d="M28.4239 0.127027C25.4874 0.139323 22.5661 1.69325 21.1081 4.7879L20.4346 6.21635V18.0194V29.8225L21.1081 31.251C22.1535 33.4697 23.7715 34.8703 26.1965 35.6436C27.9345 36.1978 30.7048 35.9057 32.472 34.9864C33.6182 34.39 35.2403 32.6145 35.8665 31.2711L36.44 30.0371V18.0194V6.00174L35.8131 4.72755C34.3082 1.6453 31.3605 0.114734 28.4239 0.127027ZM28.5573 5.97492C28.6635 5.97556 28.7697 5.98614 28.8708 6.00845C29.2094 6.08324 29.7741 6.47805 30.1312 6.88698L30.7847 7.63138V17.9658V28.3002L30.3046 29.0044C30.0405 29.3934 29.5445 29.81 29.2042 29.9298C28.8639 30.0497 28.4798 30.1461 28.3506 30.1444C27.8363 30.1375 27.038 29.5654 26.5766 28.8769L26.0898 28.1526V18.0463C26.0906 8.39933 26.1057 7.9048 26.5033 7.24912C26.9735 6.47363 27.8139 5.96989 28.5573 5.97492Z" fill="#959AA5"/>
<path d="M95.7051 35.5305C93.2313 34.6078 91.6063 33.0184 90.6699 30.6057C90.3404 29.7566 90.3073 28.3227 90.3131 15.1543L90.3194 0.638948L93.2018 0.57924L96.0842 0.519531L96.0873 14.421C96.0898 25.1638 96.1515 28.4445 96.3592 28.8591C96.507 29.1541 96.9675 29.5796 97.3825 29.8046C98.3151 30.3101 99.0966 30.1548 99.9528 29.2938L100.566 28.6775V14.5985V0.519531L103.45 0.57924L106.335 0.638948L106.334 15.1625C106.333 29.3549 106.323 29.7132 105.889 30.8813C105.261 32.5687 103.659 34.2625 101.879 35.1218C100.023 36.0177 97.4654 36.187 95.7051 35.5305H95.7051Z" fill="#959AA5"/>
<path d="M0.265625 18.0213V0.53125H7.41471H14.5638V3.53567V6.54009H10.4024H6.24098V10.6286V14.7171L8.8552 14.6806L11.4694 14.644L11.5288 17.5666L11.5882 20.4892H8.91457H6.24098V28.0002V35.5113H3.2533H0.265625V18.0213Z" fill="#959AA5"/>
<path d="M44.4419 18.0213V0.53125H48.8786C53.7097 0.53125 55.0321 0.732453 56.7136 1.7234C57.982 2.47092 59.3077 3.97382 59.9822 5.42885C60.5278 6.60597 60.5494 6.80205 60.6189 11.197C60.6768 14.8544 60.6236 16.0106 60.3478 17.0932C59.9496 18.6563 59.2238 19.9884 58.2212 20.9967L57.5123 21.7096L59.3828 28.1515C60.4116 31.6945 61.3186 34.7999 61.3983 35.0523C61.5417 35.5068 61.5126 35.5113 58.4635 35.5113H55.3839L54.4876 32.024C53.5944 28.5489 51.314 19.8425 51.1206 19.1693C51.0473 18.9141 51.1963 18.7758 51.6533 18.6749C52.4999 18.4879 54.0295 17.1457 54.393 16.2707C54.604 15.7629 54.6854 14.4858 54.6854 11.6809V7.79469L54.0616 7.16739C53.4819 6.58445 53.3234 6.54009 51.8208 6.54009H50.2038V21.0257V35.5113H47.3229H44.4419V18.0213Z" fill="#959AA5"/>
<path d="M72.392 35.3504C72.3907 35.2618 72.3668 28.7675 72.3387 20.9184L72.2875 6.6474L69.6733 6.58714L67.0591 6.52689V3.52906V0.53125H75.1685H83.2779V3.53567V6.54009H80.7171H78.1562V21.0257V35.5113H75.2752C73.6907 35.5113 72.3932 35.4389 72.392 35.3504Z" fill="#959AA5"/>
<path d="M114.013 18.0217V0.531647H116.956H119.9L120.127 1.3364C120.252 1.77902 121.224 4.89342 122.287 8.2573C123.35 11.6212 124.523 15.3633 124.895 16.5731C125.266 17.7829 125.66 18.7728 125.771 18.7728C125.894 18.7728 125.967 15.2503 125.958 9.70586L125.945 0.638948L128.835 0.57924L131.725 0.519531V18.0156V35.5117H128.462H125.198L124.587 33.5266C124.251 32.4349 123.659 30.5414 123.272 29.3189C122.884 28.0964 122.019 25.32 121.348 23.1491C120.677 20.9782 120.049 19.202 119.952 19.202C119.854 19.202 119.775 22.8717 119.775 27.3568V35.5117H116.894H114.013V18.0217H114.013Z" fill="#959AA5"/>
<path d="M139.407 18.0213V0.53125H146.556H153.705V3.53567V6.54009H149.433H145.16L145.218 10.5639L145.276 14.5877H147.997H150.718L150.718 17.5384L150.718 20.4892H147.943H145.169V24.9958V29.5025H149.437H153.705V32.5069V35.5113H146.556H139.407V18.0213H139.407Z" fill="#959AA5"/>
</svg>
