<svg width="135" height="21" viewBox="0 0 135 21" fill="none" xmlns="http://www.w3.org/2000/svg">
<path d="M20.3933 7.49798L14.1397 6.59357L11.3442 0.953862C11.2679 0.79945 11.1422 0.67445 10.9871 0.59847C10.5979 0.407293 10.125 0.566607 9.93045 0.953862L7.13494 6.59357L0.881364 7.49798C0.708954 7.52249 0.551321 7.60337 0.430634 7.72592C0.284729 7.87515 0.20433 8.07592 0.207101 8.28411C0.209872 8.4923 0.295587 8.69088 0.445412 8.83621L4.96995 13.2259L3.90101 19.4244C3.87594 19.5686 3.89198 19.7169 3.94729 19.8525C4.00261 19.9881 4.095 20.1055 4.21398 20.1915C4.33296 20.2775 4.47377 20.3286 4.62045 20.339C4.76713 20.3494 4.91381 20.3187 5.04384 20.2504L10.6373 17.324L16.2308 20.2504C16.3835 20.3313 16.5609 20.3583 16.7308 20.3289C17.1594 20.2553 17.4475 19.8509 17.3737 19.4244L16.3047 13.2259L20.8293 8.83621C20.9524 8.71611 21.0337 8.55925 21.0583 8.38768C21.1248 7.95876 20.8243 7.5617 20.3933 7.49798Z" fill="url(#paint0_linear_1_617)"/>
<path d="M48.6921 7.49798L42.4386 6.59357L39.643 0.953862C39.5667 0.79945 39.4411 0.67445 39.2859 0.59847C38.8968 0.407293 38.4239 0.566607 38.2293 0.953862L35.4338 6.59357L29.1802 7.49798C29.0078 7.52249 28.8501 7.60337 28.7295 7.72592C28.5836 7.87515 28.5032 8.07592 28.5059 8.28411C28.5087 8.4923 28.5944 8.69088 28.7442 8.83621L33.2688 13.2259L32.1998 19.4244C32.1748 19.5686 32.1908 19.7169 32.2461 19.8525C32.3014 19.9881 32.3938 20.1055 32.5128 20.1915C32.6318 20.2775 32.7726 20.3286 32.9193 20.339C33.066 20.3494 33.2126 20.3187 33.3427 20.2504L38.9362 17.324L44.5296 20.2504C44.6824 20.3313 44.8597 20.3583 45.0296 20.3289C45.4582 20.2553 45.7464 19.8509 45.6725 19.4244L44.6035 13.2259L49.1281 8.83621C49.2512 8.71611 49.3325 8.55925 49.3571 8.38768C49.4236 7.95876 49.1232 7.5617 48.6921 7.49798Z" fill="url(#paint1_linear_1_617)"/>
<path d="M77.0007 7.49798L70.7472 6.59357L67.9516 0.953862C67.8753 0.79945 67.7497 0.67445 67.5945 0.59847C67.2053 0.407293 66.7324 0.566607 66.5379 0.953862L63.7424 6.59357L57.4888 7.49798C57.3164 7.52249 57.1587 7.60337 57.0381 7.72592C56.8922 7.87515 56.8118 8.07592 56.8145 8.28411C56.8173 8.4923 56.903 8.69088 57.0528 8.83621L61.5774 13.2259L60.5084 19.4244C60.4834 19.5686 60.4994 19.7169 60.5547 19.8525C60.61 19.9881 60.7024 20.1055 60.8214 20.1915C60.9404 20.2775 61.0812 20.3286 61.2279 20.339C61.3746 20.3494 61.5212 20.3187 61.6513 20.2504L67.2448 17.324L72.8382 20.2504C72.9909 20.3313 73.1683 20.3583 73.3382 20.3289C73.7668 20.2553 74.055 19.8509 73.9811 19.4244L72.9121 13.2259L77.4367 8.83621C77.5598 8.71611 77.6411 8.55925 77.6657 8.38768C77.7322 7.95876 77.4317 7.5617 77.0007 7.49798Z" fill="url(#paint2_linear_1_617)"/>
<path d="M105.304 7.49798L99.0509 6.59357L96.2553 0.953862C96.179 0.79945 96.0534 0.67445 95.8982 0.59847C95.5091 0.407293 95.0362 0.566607 94.8416 0.953862L92.0461 6.59357L85.7925 7.49798C85.6201 7.52249 85.4625 7.60337 85.3418 7.72592C85.1959 7.87515 85.1155 8.07592 85.1182 8.28411C85.121 8.4923 85.2067 8.69088 85.3565 8.83621L89.8811 13.2259L88.8121 19.4244C88.7871 19.5686 88.8031 19.7169 88.8584 19.8525C88.9137 19.9881 89.0061 20.1055 89.1251 20.1915C89.2441 20.2775 89.3849 20.3286 89.5316 20.339C89.6783 20.3494 89.8249 20.3187 89.955 20.2504L95.5485 17.324L101.142 20.2504C101.295 20.3313 101.472 20.3583 101.642 20.3289C102.071 20.2553 102.359 19.8509 102.285 19.4244L101.216 13.2259L105.74 8.83621C105.864 8.71611 105.945 8.55925 105.969 8.38768C106.036 7.95876 105.735 7.5617 105.304 7.49798Z" fill="url(#paint3_linear_1_617)"/>
<path d="M133.604 7.49798L127.351 6.59357L124.555 0.953862C124.479 0.79945 124.353 0.67445 124.198 0.59847C123.809 0.407293 123.336 0.566607 123.142 0.953862L120.346 6.59357L114.093 7.49798C113.92 7.52249 113.763 7.60337 113.642 7.72592C113.496 7.87515 113.416 8.07592 113.418 8.28411C113.421 8.4923 113.507 8.69088 113.657 8.83621L118.181 13.2259L117.112 19.4244C117.087 19.5686 117.103 19.7169 117.158 19.8525C117.214 19.9881 117.306 20.1055 117.425 20.1915C117.544 20.2775 117.685 20.3286 117.832 20.339C117.978 20.3494 118.125 20.3187 118.255 20.2504L123.849 17.324L129.442 20.2504C129.595 20.3313 129.772 20.3583 129.942 20.3289C130.371 20.2553 130.659 19.8509 130.585 19.4244L129.516 13.2259L134.04 8.83621C134.164 8.71611 134.245 8.55925 134.269 8.38768C134.336 7.95876 134.036 7.5617 133.604 7.49798Z" fill="url(#paint4_linear_1_617)"/>
<path fill-rule="evenodd" clip-rule="evenodd" d="M132.18 7.28874L133.607 7.49519C133.976 7.5497 134.249 7.84819 134.279 8.20188V8.32985C134.277 8.34812 134.275 8.36648 134.272 8.38489C134.248 8.55646 134.167 8.71332 134.043 8.83342L132.18 10.6413V7.28874ZM127.979 6.68115L132.176 7.28823V10.6447L129.519 13.2231L130.588 19.4217C130.662 19.8481 130.373 20.2525 129.945 20.3261C129.775 20.3555 129.598 20.3285 129.445 20.2476L127.979 19.4805V6.68115Z" fill="#787F88"/>
<defs>
<linearGradient id="paint0_linear_1_617" x1="0.207031" y1="10.4293" x2="21.0675" y2="10.4293" gradientUnits="userSpaceOnUse">
<stop stop-color="#17C95F"/>
<stop offset="1" stop-color="#138241"/>
</linearGradient>
<linearGradient id="paint1_linear_1_617" x1="28.5059" y1="10.4293" x2="49.3664" y2="10.4293" gradientUnits="userSpaceOnUse">
<stop stop-color="#17C95F"/>
<stop offset="1" stop-color="#138241"/>
</linearGradient>
<linearGradient id="paint2_linear_1_617" x1="56.8145" y1="10.4293" x2="77.675" y2="10.4293" gradientUnits="userSpaceOnUse">
<stop stop-color="#17C95F"/>
<stop offset="1" stop-color="#138241"/>
</linearGradient>
<linearGradient id="paint3_linear_1_617" x1="85.1182" y1="10.4293" x2="105.979" y2="10.4293" gradientUnits="userSpaceOnUse">
<stop stop-color="#17C95F"/>
<stop offset="1" stop-color="#138241"/>
</linearGradient>
<linearGradient id="paint4_linear_1_617" x1="113.418" y1="10.4293" x2="134.279" y2="10.4293" gradientUnits="userSpaceOnUse">
<stop stop-color="#17C95F"/>
<stop offset="1" stop-color="#138241"/>
</linearGradient>
</defs>
</svg>
