<svg width="156" height="53" viewBox="0 0 156 53" fill="none" xmlns="http://www.w3.org/2000/svg">
<path d="M152.984 0.929688C154.176 1.16815 155.011 1.88353 155.011 3.07585C155.011 3.43355 154.892 4.02973 154.772 4.50666C153.938 7.96439 150.838 20.3645 149.645 28.5916L148.453 27.3992L152.268 2.12201L152.984 0.929688Z" fill="#959AA5"/>
<path d="M75.9597 4.39062C74.4096 4.74832 72.7404 4.74832 71.3096 4.39062L73.8136 6.89451L75.9597 4.39062Z" fill="#959AA5"/>
<path d="M51.5151 4.39062C53.0652 4.74832 54.7344 4.74832 56.1652 4.39062L53.6614 6.89451L51.5151 4.39062Z" fill="#959AA5"/>
<path d="M37.6854 4.26758C41.2624 13.4485 46.9855 27.1602 49.8471 32.5257L45.6739 31.2141L35.3008 5.34066L37.6854 4.26758Z" fill="#959AA5"/>
<path d="M34.3428 4.26758C35.5351 4.62528 36.489 4.62528 37.5621 4.26758L35.1775 5.69838L34.3428 4.26758Z" fill="#959AA5"/>
<path d="M36.0123 5.34375L46.624 31.2172C46.0279 31.9326 45.6701 32.2903 45.074 32.5287C41.9739 24.6594 38.7547 16.7901 35.8931 9.03996L34.4624 6.65531L36.0123 5.34375Z" fill="#959AA5"/>
<path d="M26.9555 32.5287L23.8555 31.4556L34.8248 5.70147L36.0171 5.34375V9.1592C34.3479 14.0477 30.0555 24.8979 26.9555 32.5287Z" fill="#959AA5"/>
<path d="M24.3276 0.572266L25.4006 2.95691L28.0238 1.76459L29.0969 0.691505C27.4277 0.92997 25.8777 0.929963 24.3276 0.572266Z" fill="#959AA5"/>
<path d="M16.9383 21.0802L15.1498 21.7956L14.0767 19.7687L25.2845 1.88383L26.1192 1.64535C27.1923 1.40688 28.3846 1.16843 29.2192 0.572266C27.3115 2.95691 20.8729 14.1648 16.9383 21.0802Z" fill="#959AA5"/>
<path d="M14.556 20.8418L15.033 20.3648L26.1217 1.64535L24.4524 0.572266C23.1408 3.07614 18.133 11.0647 15.033 16.3109L13.4829 19.1725L14.556 20.8418Z" fill="#959AA5"/>
<path d="M5.61115 0.572266C8.11502 4.86463 11.8113 11.0647 15.0305 16.3109V20.3648L14.3152 21.0802L3.3457 1.52615L5.61115 0.572266Z" fill="#959AA5"/>
<path d="M3.82205 1.76459L5.61054 0.572266C3.70282 0.929963 2.86817 1.04919 0.960449 0.572266L1.67596 1.40691L3.82205 1.76459Z" fill="#959AA5"/>
<path d="M15.0299 20.3648L14.1954 21.5572L13.1222 21.0802C10.9761 17.5033 4.89512 6.41465 0.960449 0.572266C1.79508 1.16843 2.74905 1.40688 4.06061 1.64535L15.0299 20.3648Z" fill="#959AA5"/>
<path d="M17.296 36.2252L14.0767 34.6752L14.3152 21.3211L15.0306 20.248L17.0575 20.9634L17.296 36.2252Z" fill="#959AA5"/>
<path d="M15.0301 35.152L12.7646 36.2251L13.0032 21.0826L15.0301 20.3672V35.152Z" fill="#959AA5"/>
<path d="M22.3066 32.5257C26.2413 24.5371 30.5336 13.8062 34.3491 4.26758L36.0184 5.22142L25.2874 31.4525L23.1414 32.1679L22.3066 32.5257Z" fill="#959AA5"/>
<path d="M46.5098 31.0958L49.8482 32.5266C48.5366 32.1689 46.8675 32.0497 45.1982 32.5266L45.7944 30.9766L46.5098 31.0958Z" fill="#959AA5"/>
<path d="M28.7417 23.3464L31.0071 22.3926C34.3456 22.5118 37.6842 22.5118 41.0227 22.3926L43.4073 23.4657L41.2611 23.9426H30.411L28.7417 23.3464Z" fill="#959AA5"/>
<path d="M30.2918 24.3011L28.7417 23.3472C33.6302 23.228 38.5188 23.228 43.4073 23.3472L41.8573 24.3011C37.9226 24.1818 34.1072 24.1818 30.2918 24.3011Z" fill="#959AA5"/>
<path d="M56.1682 32.5295L52.8296 31.4563V6.17911L53.7835 5.70219L56.1682 4.39062C55.6912 13.6907 55.6912 23.1101 56.1682 32.5295Z" fill="#959AA5"/>
<path d="M53.7836 31.2179V31.9333L51.3989 32.6487C51.7566 23.2293 51.7566 13.81 51.3989 4.39062L53.7836 5.70219V31.2179Z" fill="#959AA5"/>
<path d="M71.1919 32.5295L74.5305 31.4563V6.17911L73.5765 5.70219L71.1919 4.39062C71.6688 13.6907 71.6688 23.1101 71.1919 32.5295Z" fill="#959AA5"/>
<path d="M53.7842 18.3385L55.8111 17.5039C61.0573 17.6231 66.3036 17.6231 71.5498 17.5039L73.5767 18.3385L71.0729 18.9347H55.8111L53.7842 18.3385Z" fill="#959AA5"/>
<path d="M92.5321 4.26953C83.3512 4.26953 78.7012 9.99267 78.7012 18.4582C78.7012 28.9506 85.6166 32.6468 92.4129 32.6468C100.401 32.6468 106.125 28.116 106.125 18.4582C106.125 9.27728 100.759 4.26953 92.5321 4.26953ZM92.1743 5.70033H92.4129C98.4937 5.70033 103.025 9.87345 103.025 18.5774C103.025 27.2814 98.4937 31.4545 92.4129 31.4545C85.7359 31.4545 81.8012 26.6852 81.8012 18.6966C81.9204 9.39653 86.8089 5.81957 92.1743 5.70033Z" fill="#959AA5"/>
<path d="M92.5299 3.91211C82.5143 3.91211 77.2681 10.2314 77.2681 18.4584C77.2681 27.4009 82.9913 32.8855 92.4107 32.8855C102.665 32.8855 107.672 26.6855 107.672 18.5777C107.672 9.39678 101.711 3.91211 92.5299 3.91211ZM92.5299 4.86595C100.399 4.86595 105.645 9.63524 105.645 18.4584C105.645 27.6393 100.161 32.0509 92.4107 32.0509C85.9721 32.0509 79.1759 28.5932 79.1759 18.4584C79.1759 10.4699 83.5874 4.86595 92.5299 4.86595Z" fill="#959AA5"/>
<path d="M126.985 2.83594C117.566 2.83594 111.247 8.08217 111.247 18.4554C111.247 28.5901 117.208 34.1941 127.105 34.1941C134.616 34.1941 142.724 30.3786 142.724 18.5746C142.605 5.93599 133.662 2.83594 126.985 2.83594ZM126.866 4.02826C134.378 4.02826 139.862 8.5591 139.862 18.5746C139.862 29.4248 133.185 33.0017 126.866 33.0017C120.189 33.0017 113.989 29.0671 113.989 18.4554C114.108 7.24754 120.905 4.02826 126.866 4.02826Z" fill="#959AA5"/>
<path d="M126.871 2.24219C116.975 2.24219 109.344 7.84611 109.344 18.3385C109.344 26.9233 114.352 34.5541 126.99 34.5541C137.602 34.5541 144.517 28.7118 144.517 18.4578C144.517 8.9192 138.079 2.24219 126.871 2.24219ZM126.99 3.31531C133.548 3.31531 142.252 6.29611 142.252 18.6963C142.252 30.1426 134.263 33.958 126.99 33.958C117.452 33.958 111.609 28.4733 111.609 18.577C111.609 8.44228 117.809 3.31531 126.99 3.31531Z" fill="#959AA5"/>
<path d="M145.347 34.1971C145.347 33.0048 146.062 31.8125 147.612 31.8125C149.043 31.8125 150.116 32.6471 150.116 33.9587C150.116 35.6279 149.043 36.2241 147.97 36.2241C146.42 36.3433 145.347 35.6279 145.347 34.1971Z" fill="#959AA5"/>
<path d="M147.734 28.3571C148.927 20.2493 149.523 11.7838 150.238 3.1991C150.238 1.52985 151.311 0.814453 152.504 0.814453H152.98L152.623 2.84138L148.569 27.9994L147.734 28.3571Z" fill="#959AA5"/>
<path d="M12.7681 36.2278L15.0335 34.5586L17.299 36.2278C17.299 36.2278 16.1066 35.9894 15.0335 35.9894C14.0797 35.9894 12.7681 36.2278 12.7681 36.2278Z" fill="#959AA5"/>
<path d="M22.3091 32.5323L25.4091 31.2207C25.886 31.8169 26.363 32.2938 26.9592 32.5323C25.8861 32.2938 24.0976 32.0553 22.3091 32.5323Z" fill="#959AA5"/>
<path d="M51.5186 32.5323C53.0686 32.1746 54.6186 32.1746 56.1686 32.5323L53.784 31.2207L51.5186 32.5323Z" fill="#959AA5"/>
<path d="M55.8086 19.4149L53.7817 18.3418C60.3395 18.461 66.8973 18.461 73.4551 18.3418L71.4282 19.4149C66.3012 19.2957 61.0549 19.4149 55.8086 19.4149Z" fill="#959AA5"/>
<path d="M73.5742 31.214V31.9294L75.9589 32.6447C75.6012 23.2254 75.6012 13.8061 75.9589 4.38672L73.5742 5.69828V31.214Z" fill="#959AA5"/>
<path d="M75.9572 32.5303C74.4072 32.1726 72.8571 32.1726 71.3071 32.5303L73.6918 31.2188L75.9572 32.5303Z" fill="#959AA5"/>
<path d="M148.687 27.5234L147.614 28.4773C148.33 28.358 148.807 28.4773 149.403 28.7158L148.687 27.5234Z" fill="#959AA5"/>
<path d="M152.503 4.98553C153.754 4.98553 154.768 4.07802 154.768 2.95857C154.768 1.83911 153.754 0.931641 152.503 0.931641C151.252 0.931641 150.237 1.83911 150.237 2.95857C150.237 4.07802 151.252 4.98553 152.503 4.98553Z" fill="#959AA5"/>
<path d="M50.617 41.6875V42.6414H45.8477V45.9799H50.1401V46.9337H45.8477V51.9415H43.2246V41.6875H50.617Z" fill="#959AA5"/>
<path d="M53.0015 41.6875H55.6246V51.9415H53.0015V41.6875Z" fill="#959AA5"/>
<path d="M58.0124 41.6875H59.4432L65.4048 48.126V41.6875H67.074V52.1799H65.8817L59.4432 45.026V52.1799H57.7739V41.6875H58.0124Z" fill="#959AA5"/>
<path d="M74.7059 41.4531L79.4752 51.9456H76.8521L75.6598 49.084H71.6059L70.1751 51.9456H68.5059L73.5136 41.4531H74.7059ZM72.0828 48.1301H75.1829L73.7521 44.7916L72.0828 48.1301Z" fill="#959AA5"/>
<path d="M80.666 41.6875H82.3353L88.2969 48.126V41.6875H89.9661V52.1799H88.7738L82.3353 45.026V52.1799H80.666V41.6875Z" fill="#959AA5"/>
<path d="M94.9727 46.6979C94.9727 47.4133 94.9727 47.8903 95.2112 48.3672C95.4497 48.8441 95.6881 49.3211 95.9266 49.5595C96.165 49.798 96.642 50.2749 97.1189 50.2749C97.5958 50.2749 98.0728 50.5134 98.5497 50.5134C99.0266 50.5134 99.2651 50.5134 99.5035 50.2749C99.742 50.0364 100.219 50.0364 100.457 49.798L101.173 49.0826C101.411 48.8441 101.65 48.6057 101.888 48.1287L102.842 48.8441C102.604 49.3211 102.365 49.5595 102.127 49.798C101.888 50.0364 101.411 50.5134 100.934 50.7518C100.457 50.9903 100.219 51.2288 99.742 51.4672C99.2651 51.7057 98.7882 51.7057 98.3112 51.7057C97.3574 51.7057 96.642 51.4672 95.9266 51.2288C95.2112 50.9903 94.4958 50.5134 94.0189 50.0364C93.5419 49.5595 93.065 49.0826 92.8265 48.3672C92.5881 47.6518 92.3496 46.9364 92.3496 46.221C92.3496 45.5056 92.5881 44.7902 92.8265 44.0748C93.065 43.3594 93.5419 42.8825 94.0189 42.4056C94.4958 41.9286 95.2112 41.4517 95.9266 41.2133C96.642 40.9748 97.3574 40.7363 98.3112 40.7363C98.7882 40.7363 99.5036 40.7363 99.9805 40.9748C100.457 41.2133 100.934 41.2133 101.411 41.4517C101.888 41.6902 102.127 41.9286 102.604 42.4056C102.842 42.644 103.081 43.121 103.557 43.5979L102.604 44.3133C102.365 44.0748 102.127 43.8364 101.888 43.3594L101.173 42.644C99.9805 43.121 99.742 42.8825 99.5035 42.8825C99.2651 42.8825 98.7882 42.644 98.5497 42.644C98.0728 42.644 97.5958 42.644 97.1189 42.8825C96.642 43.121 96.4035 43.3594 95.9266 43.5979C95.6881 43.8364 95.4497 44.3133 95.2112 44.7902C94.9727 45.2672 94.9727 46.221 94.9727 46.6979Z" fill="#959AA5"/>
<path d="M112.859 41.6875V42.6414H107.613V45.9799H111.905V46.9337H107.613V50.9876H112.859V51.9415H105.228V41.6875H112.859Z" fill="#959AA5"/>
</svg>
